<svg width="1728" height="1789" viewBox="0 0 1728 1789" fill="none" xmlns="http://www.w3.org/2000/svg">
<path d="M1139.75 552.779L1158.27 208.451C740.589 235.941 271.342 263.43 -59.9152 290.931L-148.475 1788.69C283.576 1757.91 955.545 1727.14 1432.83 1696.36C1514.07 1691.12 1579.36 1617.43 1585.51 1524.09C1599.02 1318.91 1612.54 1131.68 1626.07 944.943L1489.12 954.702C1291.32 968.788 1127.51 780.33 1139.75 552.768V552.779Z" fill="#A7F2B5"/>
<path d="M1173.42 -73.0839L1158.28 208.451C1221.85 204.27 1284.23 200.078 1344.74 195.897C1522.11 183.633 1667.9 354.708 1653.71 558.469C1644.5 690.741 1635.29 817.724 1626.08 944.943C1715.89 938.548 1805.71 932.143 1895.52 925.748V-73.0839H1173.43H1173.42Z" fill="#A7F2B5"/>
<path d="M1344.73 195.897C1284.22 200.078 1221.84 204.27 1158.27 208.451L1139.75 552.779C1127.5 780.341 1291.32 968.799 1489.12 954.713L1626.07 944.954C1635.28 817.736 1644.49 690.752 1653.7 558.481C1667.89 354.719 1522.09 183.645 1344.73 195.908V195.897Z" fill="#00917D"/>
</svg>
