<svg width="109" height="31" viewBox="0 0 109 31" fill="none" xmlns="http://www.w3.org/2000/svg">
<g id="Group">
<path id="Vector" d="M13.9536 11.4173C13.7763 10.6757 13.2585 9.00856 13.1175 7.77773C12.8062 5.05166 13.8921 3.25631 14.8893 2.84515C16.0084 2.43532 16.4456 3.17302 16.8787 4.88772C17.4388 7.49877 17.5013 10.9203 17.3129 15.8185C17.0681 22.5094 14.5176 30.5897 8.17771 30.4218C2.70506 30.2645 0.28352 25.6122 0.0316957 18.5141C-0.0871654 15.168 0.0951556 11.8232 1.1508 7.0929C1.71086 4.55985 2.21048 3.65822 3.94807 3.17302C5.31396 2.84516 5.19107 4.71983 4.88183 6.9303C4.2009 11.8232 3.88461 14.1857 4.13643 19.737C4.3802 25.6122 6.43609 27.898 8.67431 27.898C12.0316 27.9826 13.5224 24.3113 14.147 19.002C14.6395 14.7608 14.2678 12.7209 13.9536 11.4173ZM85.5362 17.2119C86.8436 17.2119 87.2183 19.2412 86.9061 20.4708C86.5938 21.6923 85.4767 23.0858 83.7371 23.4916C83.3624 22.2648 83.175 17.2119 85.5362 17.2119ZM61.2341 19.9776C61.2341 18.5961 60.671 17.4525 59.9931 17.4525C59.427 17.4525 58.1266 18.2656 58.1266 20.8779C58.1266 22.9245 58.6806 23.8949 58.9344 24.3113C60.7325 23.5736 61.2341 21.6104 61.2341 19.9776ZM41.896 3.33564C41.8084 2.02681 41.0267 1.13574 39.969 1.13574C38.7895 1.13574 37.6784 2.76055 37.7963 4.8018C37.8718 6.14764 38.4762 7.2542 39.6638 7.2542C41.0267 7.25552 42.0209 5.2156 41.896 3.33564ZM52.0062 8.12808C51.8985 5.84621 51.4774 4.81633 50.5436 4.90095C49.3057 4.99878 48.7335 10.1111 48.9864 15.4853C49.1475 18.9914 49.5454 19.5321 49.9161 19.4977C50.6011 19.4435 52.244 13.1796 52.0062 8.12808ZM93.246 16.7174C92.4754 20.9123 90.1395 27.0837 86.6543 27.0837C85.8474 27.0837 84.417 26.6725 84.417 25.6122C84.417 24.4686 89.8917 24.3113 89.8917 18.8407C89.8917 16.8034 88.4624 13.9438 86.347 13.9438C83.5498 13.9438 80.821 17.9456 80.821 23.493C80.821 28.4665 83.175 30.0993 85.5372 30.0993C89.6419 30.0993 92.1289 25.6902 93.4334 22.0215C94.0579 24.47 94.4246 30.0993 95.9849 30.0993C96.6043 30.0993 97.0425 29.6907 97.7889 27.4908C99.6494 22.0202 101.454 15.7378 103.943 15.7378C104.872 15.7378 104.315 17.9456 106.552 17.9456C107.607 17.9456 108.35 16.8034 108.35 15.4919C108.35 13.6133 107.047 12.1498 105.06 12.1498C99.2143 12.1498 97.9753 23.6556 97.0415 23.6556C95.4862 23.6556 95.9838 14.4343 94.8627 14.4343C93.8675 14.4329 93.379 15.989 93.246 16.7174ZM43.5137 26.5072C44.4455 26.5072 46.0481 26.1106 47.3092 23.4599C46.588 21.3579 46.0733 17.1101 46.0017 15.5633C45.6311 7.65346 47.9529 0.212944 50.4943 0.0067044C52.3578 -0.141365 53.8486 2.17355 54.0198 5.92422C54.4781 15.7801 51.977 19.8943 50.725 23.444C50.9365 24.8203 52.7154 27.163 54.3935 27.163C55.013 27.163 55.7625 26.7545 55.9508 26.4239C55.8259 25.8568 55.699 25.123 55.699 24.0588C55.699 18.3475 58.4973 13.5313 60.9228 13.5313C62.8498 13.5313 63.9689 16.8761 63.9689 19.0839C63.9689 21.691 62.2887 23.8169 59.8037 25.8568C60.2409 26.4239 61.0447 26.8364 61.7317 26.8364C65.2784 26.8364 67.1338 21.2045 68.5078 16.0617C68.7556 15.0807 69.1938 13.6966 70.062 13.6966C71.5539 13.6966 72.1784 26.5892 74.6584 26.5892C75.719 26.5892 76.5873 23.7309 76.5873 21.5337C76.5873 19.8996 76.1522 19.7357 76.1522 17.3692C76.1522 14.7608 77.2098 12.5596 78.6432 12.5596C79.5125 12.5596 79.8268 13.6966 79.8268 15.0807C79.8268 20.3042 76.9631 30.016 72.7415 30.016C69.5655 30.016 69.8132 22.8346 68.6951 22.8346C67.4461 22.8346 65.7055 30.0966 59.5569 30.0966C58.5577 30.0966 57.5031 29.4448 56.6348 28.136C55.145 29.4448 53.8979 30.016 52.4676 30.016C50.1699 30.016 49.1727 26.9144 48.243 26.9144C47.1219 26.9144 45.8819 30.0966 42.1478 30.0966C39.1642 30.0966 38.6666 24.8798 37.612 24.8798C36.6772 24.8798 35.2478 30.0966 33.6946 30.0966C31.0796 30.0966 30.5256 21.0419 28.2209 21.0419C26.4189 21.0419 20.7226 30.2381 19.1764 30.0279C18.5549 29.9432 18.293 29.3338 18.3585 28.5168C18.4461 27.3877 19.1865 24.3655 19.4866 22.9364C19.9893 20.4549 20.4506 17.7354 20.7085 16.8682C20.9643 15.993 21.6543 15.369 22.2084 15.4364C22.4874 15.4708 22.571 16.1543 22.6576 16.7188C22.9719 18.7362 23.4101 20.7933 23.9046 20.7933C24.778 20.7933 27.6619 13.53 29.34 13.53C31.3949 13.53 31.6407 24.9565 34.437 24.9565C35.3717 24.9565 36.0577 23.4903 36.6772 21.6897C36.7406 18.6661 37.3621 14.351 39.2267 14.351C40.5331 14.351 41.1556 18.1823 40.2198 21.5324C40.2178 25.5276 42.2052 26.5072 43.5137 26.5072Z" fill="#004A4E"/>
</g>
</svg>
