<svg width="135" height="26" viewBox="0 0 135 26" fill="none" xmlns="http://www.w3.org/2000/svg">
<g id="Group 1000004304">
<path id="Vector" d="M127.605 21.6253C127.605 19.6536 129.206 18.0539 131.177 18.0539C133.148 18.0539 134.747 19.6536 134.747 21.6253C134.747 23.5971 133.148 25.1957 131.177 25.1957C129.206 25.1957 127.605 23.5971 127.605 21.6253Z" fill="#004A4E"/>
<path id="Vector_2" d="M13.7071 12.1638C13.7071 9.90165 13.27 8.22341 12.3958 7.13007C11.5204 6.03777 10.1945 5.49212 8.41193 5.49212H6.51568V19.3253H7.96647C9.94647 19.3253 11.3974 18.7383 12.3213 17.5602C13.2441 16.3842 13.7071 14.585 13.7071 12.1638ZM20.4696 11.9282C20.4696 16.0494 19.3618 19.225 17.1462 21.454C14.9306 23.6841 11.816 24.7992 7.80117 24.7992H0V0.104004H8.34572C12.2168 0.104004 15.2054 1.11776 17.3115 3.14426C19.4166 5.1718 20.4696 8.09839 20.4696 11.9282Z" fill="#004A4E"/>
<path id="Vector_3" d="M42.0796 24.8034H48.2873V0.00494385H42.0796V24.8034Z" fill="#004A4E"/>
<path id="Vector_4" d="M57.0042 15.5469C57.0042 17.128 57.2109 18.334 57.6232 19.1627C58.0366 19.9926 58.7289 20.407 59.7023 20.407C60.6655 20.407 61.3465 19.9926 61.7433 19.1627C62.1401 18.334 62.3375 17.128 62.3375 15.5469C62.3375 13.9741 62.137 12.7877 61.735 11.9868C61.332 11.1839 60.6449 10.7819 59.6704 10.7819C58.7176 10.7819 58.0366 11.1818 57.6232 11.9775C57.2109 12.7743 57.0042 13.9637 57.0042 15.5469ZM68.6558 15.5469C68.6558 18.5593 67.8662 20.9092 66.283 22.5937C64.7009 24.2791 62.4863 25.1224 59.6394 25.1224C56.9091 25.1224 54.7358 24.2605 53.1227 22.5368C51.5075 20.8131 50.7004 18.4838 50.7004 15.5469C50.7004 12.5438 51.4911 10.2104 53.0742 8.54662C54.6573 6.88284 56.877 6.05096 59.7354 6.05096C61.5016 6.05096 63.0641 6.43644 64.4178 7.20632C65.7726 7.97621 66.8185 9.07885 67.5532 10.5153C68.2889 11.9496 68.6558 13.6279 68.6558 15.5469Z" fill="#004A4E"/>
<path id="Vector_5" d="M71.1211 24.7982H77.3298V15.3074V6.37781H71.1211V24.7982Z" fill="#004A4E"/>
<path id="Vector_6" d="M71.1211 4.15117H77.3298V0H71.1211V4.15117Z" fill="#004A4E"/>
<path id="Vector_7" d="M89.9084 20.1019C90.7465 20.1019 91.7447 19.8891 92.9093 19.4664V24.1012C92.0723 24.4691 91.2766 24.7326 90.5202 24.8886C89.7637 25.0468 88.876 25.1253 87.8602 25.1253C85.7758 25.1253 84.2732 24.6014 83.3504 23.5556C82.4317 22.5098 81.9708 20.9039 81.9708 18.7368V11.1434H79.7966V6.38148H81.9708V1.67743L88.2271 0.589233V6.38148H92.1882V11.1434H88.2271V18.3131C88.2271 19.5057 88.7882 20.1019 89.9084 20.1019Z" fill="#004A4E"/>
<path id="Vector_8" d="M104.279 20.1019C105.117 20.1019 106.116 19.8891 107.28 19.4664V24.1012C106.444 24.4691 105.647 24.7326 104.891 24.8886C104.133 25.0468 103.249 25.1253 102.231 25.1253C100.146 25.1253 98.644 24.6014 97.7232 23.5556C96.8025 22.5098 96.3417 20.9039 96.3417 18.7368V11.1434H94.1663V6.38148H96.3417V1.60613L102.597 0.589233V6.38148H106.56V11.1434H102.597V18.3131C102.597 19.5057 103.158 20.1019 104.279 20.1019Z" fill="#004A4E"/>
<path id="Vector_9" d="M115.118 13.3023C115.203 12.2937 115.492 11.5549 115.983 11.0826C116.477 10.6114 117.087 10.3758 117.817 10.3758C118.612 10.3758 119.245 10.6403 119.714 11.1735C120.186 11.7037 120.432 12.4136 120.452 13.3023H115.118ZM123.873 8.22217C122.398 6.7754 120.304 6.05096 117.595 6.05096C114.748 6.05096 112.558 6.88284 111.022 8.54662C109.487 10.2104 108.719 12.5976 108.719 15.7081C108.719 18.7205 109.549 21.0435 111.205 22.6742C112.861 24.305 115.188 25.1214 118.183 25.1214C119.622 25.1214 120.86 25.0232 121.898 24.8279C122.929 24.6346 123.927 24.2853 124.895 23.781L123.942 19.6298C123.238 19.9171 122.568 20.1383 121.936 20.284C121.022 20.4958 120.02 20.6023 118.929 20.6023C117.732 20.6023 116.787 20.3098 116.095 19.7249C115.403 19.139 115.034 18.3309 114.991 17.3016H126.088V14.4732C126.088 11.7522 125.35 9.6679 123.873 8.22217Z" fill="#004A4E"/>
<path id="Vector_10" d="M28.7062 13.3023C28.7909 12.2937 29.0792 11.5549 29.5711 11.0826C30.064 10.6114 30.6749 10.3758 31.4055 10.3758C32.1992 10.3758 32.8316 10.6403 33.3018 11.1735C33.774 11.7037 34.019 12.4136 34.0407 13.3023H28.7062ZM37.4622 8.22217C35.9856 6.7754 33.8928 6.05096 31.1833 6.05096C28.3352 6.05096 26.1454 6.88284 24.6107 8.54662C23.0762 10.2104 22.3074 12.5976 22.3074 15.7081C22.3074 18.7205 23.1362 21.0435 24.7938 22.6742C26.4493 24.305 28.7754 25.1214 31.7713 25.1214C33.2098 25.1214 34.4477 25.0232 35.4853 24.8279C36.5166 24.6346 37.515 24.2853 38.4843 23.781L37.5295 19.6298C36.8257 19.9171 36.156 20.1383 35.5246 20.284C34.609 20.4958 33.6076 20.6023 32.5162 20.6023C31.3206 20.6023 30.3752 20.3098 29.6829 19.7249C28.9894 19.139 28.6216 18.3309 28.5792 17.3016H39.6758V14.4732C39.6758 11.7522 38.9379 9.6679 37.4622 8.22217Z" fill="#004A4E"/>
</g>
</svg>
