<svg width="107" height="31" viewBox="0 0 107 31" fill="none" xmlns="http://www.w3.org/2000/svg">
<g id="Group 1000004302">
<path id="Vector" d="M57.8259 19.6634C57.8259 22.9572 53.7035 22.7617 53.7035 22.7617H49.6033V16.7848H53.7258C57.9477 16.7607 57.8259 19.6634 57.8259 19.6634ZM49.6033 7.68559H52.7256C55.9697 7.85714 55.8479 10.2709 55.8479 10.2709C55.8479 13.2714 52.2624 13.3211 52.2624 13.3211H49.6033V7.68559ZM57.0693 14.5168C57.0693 14.5168 59.8742 13.3211 59.8502 10.1251C59.8502 10.1251 60.2894 4.90471 53.3604 4.26997H45.7005V26.1292H54.484C54.484 26.1292 61.8282 26.1533 61.8282 19.9568C61.8505 19.9808 62.0221 15.7606 57.0693 14.5168ZM37.2344 1.52588e-05H69.5104V30.4232H37.2344V1.52588e-05Z" fill="#004A4E"/>
<path id="Vector_2" d="M20.6138 19.6634C20.6138 22.9572 16.4914 22.7617 16.4914 22.7617H12.369V16.7848H16.4914C20.7373 16.7607 20.6138 19.6634 20.6138 19.6634ZM12.369 7.68559H15.4912C18.7353 7.85714 18.6135 10.2709 18.6135 10.2709C18.6135 13.2714 15.028 13.3211 15.028 13.3211H12.369V7.68559ZM19.8332 14.5168C19.8332 14.5168 22.6381 13.3211 22.6141 10.1251C22.6141 10.1251 23.0533 4.90471 16.1243 4.26997H8.48844V26.1292H17.272C17.272 26.1292 24.6161 26.1533 24.6161 19.9568C24.6161 19.9808 24.786 15.7606 19.8332 14.5168ZM0 1.52588e-05H32.276V30.4232H0V1.52588e-05Z" fill="#004A4E"/>
<path id="Vector_3" d="M100.136 5.85512V9.90548C100.136 9.90548 96.1838 7.49002 91.8418 7.44198C91.8418 7.44198 83.717 7.27043 83.3516 15.2236C83.3516 15.2236 83.0582 22.5421 91.744 22.9572C91.744 22.9572 95.4032 23.3964 100.332 20.2484V24.4446C100.332 24.4446 93.6962 28.3972 86.0107 25.347C86.0107 25.347 79.5448 22.9813 79.3012 15.2476C79.3012 15.2476 79.0336 7.29445 87.6456 4.63538C87.6456 4.63538 89.9392 3.75703 94.0857 4.14817C94.0857 4.12415 96.5492 4.36775 100.136 5.85512ZM74.4463 30.4232H106.722V1.52588e-05H74.4463V30.4232Z" fill="#004A4E"/>
</g>
</svg>
