<svg width="1728" height="808" viewBox="0 0 1728 808" fill="none" xmlns="http://www.w3.org/2000/svg">
<path d="M1859 0C1693.92 11.9091 1528.83 23.8181 1363.75 35.7272L1347.63 296.152C1443.88 334.041 1519.5 413.402 1552.32 512.055C1642.64 506.464 1732.96 500.873 1823.28 495.276C1835.19 330.186 1847.1 165.09 1859.01 0L1859 0Z" fill="#A7F2B5"/>
<path d="M1340 419.385L1347.62 296.159C1300.53 277.617 1248.5 269.004 1194.13 272.929C779.75 302.814 365.379 332.705 -49 362.604V981.007H1545.13C1553.13 869.998 1561.15 758.982 1569.15 647.973C1572.59 600.288 1566.39 554.401 1552.3 512.062C1514.75 514.385 1477.19 516.715 1439.64 519.038C1383.22 522.529 1336.5 475.81 1339.99 419.392L1340 419.385Z" fill="#004A4E"/>
<path d="M1347.62 296.152L1340 419.378C1336.51 475.795 1383.23 522.515 1439.65 519.024C1477.2 516.701 1514.76 514.37 1552.31 512.047C1519.49 413.395 1443.87 334.034 1347.62 296.145V296.152Z" fill="#E6F5E4"/>
</svg>
