<svg width="393" height="642" viewBox="0 0 393 642" fill="none" xmlns="http://www.w3.org/2000/svg">
<g clip-path="url(#clip0_1111_2918)">
<path d="M56.64 570.33L72.24 419.86C75.32 390.17 99.26 366.96 129.03 364.82C217.19 358.46 305.35 352.1 393.51 345.74L421.8 -46.46C205.93 -30.89 -9.94998 -15.31 -225.82 0.259991L-265.47 640.83C-152.13 633.81 -38.78 626.79 74.56 619.78C61.9 607.44 54.63 589.63 56.63 570.34L56.64 570.33Z" fill="#A7F2B5"/>
<path d="M393.51 345.74C390.57 386.47 387.63 427.2 384.7 467.93C379.2 544.23 318.11 604.69 241.76 609.42C186.03 612.87 130.3 616.32 74.5701 619.77C86.2101 631.12 102.41 637.85 120.21 636.81C251.94 629.11 390.2 622.04 519.04 614.07C530.14 460.19 528.1 489.11 539.2 335.24C490.64 338.74 442.08 342.25 393.52 345.75L393.51 345.74Z" fill="#004A4E"/>
<path d="M384.7 467.93C387.64 427.2 390.58 386.47 393.51 345.74C305.35 352.1 217.19 358.46 129.03 364.82C99.2599 366.97 75.3099 390.17 72.2399 419.86L56.6399 570.33C54.6399 589.62 61.9099 607.43 74.5699 619.77C130.3 616.32 186.03 612.87 241.76 609.42C318.11 604.69 379.19 544.23 384.7 467.93Z" fill="#00917D"/>
</g>
<defs>
<clipPath id="clip0_1111_2918">
<rect width="805.73" height="688.36" fill="white" transform="translate(-266 -47)"/>
</clipPath>
</defs>
</svg>
