<svg idth="45" height="46" viewBox="0 0 41 60" fill="none" xmlns="http://www.w3.org/2000/svg">
<g id="Layer_1" clip-path="url(#clip0_360_3546)">
<path id="Vector" d="M12.3845 60.0012C12.09 59.941 11.7921 59.8968 11.5024 59.8194C10.0043 59.425 9.1481 58.2308 9.1163 56.4849C9.10217 55.6839 9.10217 54.8828 9.11748 54.0818C9.12337 53.755 9.02209 53.5068 8.82187 53.2611C6.26269 50.1159 3.9626 46.7839 2.15833 43.1005C1.2244 41.1925 0.458876 39.2145 0.140892 37.0816C-0.12174 35.3223 -0.0593208 33.5936 0.73093 31.9645C1.58949 30.1953 3.02277 29.1399 4.75638 28.4642C5.51954 28.1669 5.52072 28.1718 5.52072 27.3302C5.52072 20.1675 5.51837 13.0047 5.52072 5.84196C5.52072 3.22258 7.05647 1.01724 9.38836 0.262881C12.9463 -0.889548 16.5312 1.93009 16.5218 5.86408C16.5147 8.66898 16.5218 11.4726 16.5218 14.2775C16.5218 14.3746 16.5218 14.4704 16.5218 14.6338C17.9257 13.8979 19.3589 13.7234 20.8287 14.2087C22.308 14.6965 23.3879 15.7003 24.1216 17.1439C25.9188 15.9386 27.7985 15.699 29.7229 16.6758C31.6343 17.6451 32.6271 19.3197 32.845 21.5361C33.5799 21.1528 34.3278 20.9206 35.1286 20.8567C37.9481 20.6331 40.6192 22.8544 40.9124 25.7895C41.0467 27.1361 40.9878 28.5048 40.989 29.8624C40.9949 35.7867 41.0019 41.711 40.9878 47.6353C40.9819 50.2289 39.9114 52.2327 37.7938 53.6063C37.5382 53.7722 37.424 53.981 37.4216 54.2907C37.4158 55.0548 37.3993 55.8203 37.3769 56.5845C37.3204 58.49 36.2369 59.7149 34.4279 59.9312C34.3136 59.9447 34.2018 59.9779 34.0899 60.0024H12.3845V60.0012ZM5.52072 31.3576C4.07448 31.9805 3.11228 32.9584 2.92031 34.5654C2.84729 35.1724 2.86614 35.8051 2.9368 36.4145C3.11699 37.9466 3.63872 39.3767 4.26527 40.7637C6.01772 44.6461 8.38023 48.1083 11.0313 51.3666C11.6625 52.1431 11.9911 53.0105 11.9735 54.0302C11.9593 54.8312 11.9758 55.6323 11.9699 56.4333C11.9676 56.7528 12.07 56.9285 12.4104 56.9088C12.6648 56.8941 12.9215 56.9309 13.1771 56.9321C18.4109 56.953 23.6447 56.9801 28.8785 56.985C30.6227 56.9862 32.3669 56.9235 34.1111 56.9063C34.442 56.9027 34.5245 56.7528 34.5256 56.4456C34.5292 55.6925 34.5492 54.9406 34.5669 54.1887C34.5998 52.8188 35.1757 51.7745 36.2993 51.0631C37.5147 50.2928 38.1271 49.16 38.1283 47.682C38.133 40.69 38.1306 33.6968 38.1295 26.7036C38.1295 25.0671 36.9541 23.8017 35.4596 23.8213C33.9827 23.841 32.8297 25.12 32.8332 26.7257C32.8368 28.0981 32.8391 29.4692 32.8309 30.8416C32.8262 31.6008 32.3527 32.2004 31.685 32.3282C30.7581 32.5051 29.9785 31.8208 29.9773 30.8133C29.9726 27.8389 29.982 24.8644 29.9714 21.89C29.9655 20.2805 28.7772 19.0457 27.2838 19.0679C25.8376 19.0887 24.6705 20.3849 24.6728 21.9588C24.6764 24.0105 24.6752 26.0623 24.6752 28.1141C24.6752 29.0367 24.6834 29.9594 24.6716 30.8821C24.6634 31.6156 24.1876 32.2016 23.5257 32.3294C22.593 32.5088 21.8192 31.8109 21.818 30.7728C21.8145 27.6165 21.818 24.4602 21.8168 21.3039C21.8168 20.7093 21.831 20.1134 21.8086 19.52C21.7568 18.1587 20.6674 17.0161 19.3672 16.9375C17.7655 16.8416 16.523 18.1083 16.5218 19.8554C16.5183 23.4122 16.5218 26.969 16.5218 30.527C16.5218 30.6966 16.5253 30.8674 16.51 31.0369C16.4488 31.7003 15.9612 32.2336 15.33 32.338C14.3972 32.4903 13.6658 31.7913 13.6658 30.7285C13.6658 23.809 13.6682 16.8896 13.667 9.96884C13.667 8.50066 13.687 7.03002 13.6411 5.56307C13.6022 4.34798 12.6813 3.28524 11.5601 3.04566C10.4012 2.79872 9.23643 3.3737 8.67819 4.46347C8.42969 4.95 8.37081 5.47093 8.37198 6.01274C8.37434 15.7126 8.37434 25.4124 8.37316 35.1122C8.37316 35.294 8.37316 35.4771 8.35196 35.6577C8.25657 36.4231 7.63591 36.9698 6.90101 36.9453C6.1614 36.9195 5.5749 36.3383 5.52779 35.5692C5.51012 35.2916 5.51954 35.0114 5.51954 34.7313C5.51954 33.6293 5.51954 32.526 5.51954 31.36L5.52072 31.3576Z" fill="#2E133A"/>
<path id="Vector_2" d="M5.5188 31.3564C5.5188 32.5236 5.5188 33.6256 5.5188 34.7277C5.5188 35.0066 5.51055 35.2867 5.52704 35.5656C5.57415 36.3347 6.16183 36.9158 6.90026 36.9416C7.63516 36.9662 8.25582 36.4207 8.35122 35.654C8.37359 35.4747 8.37242 35.2904 8.37242 35.1085C8.37242 25.4087 8.37359 15.7089 8.37124 6.0091C8.37124 5.46728 8.42895 4.94636 8.67745 4.45983C9.23569 3.37006 10.3993 2.79508 11.5593 3.04202C12.6805 3.2816 13.6015 4.34434 13.6404 5.55943C13.6863 7.02638 13.6663 8.49702 13.6663 9.9652C13.6663 16.8847 13.6639 23.8042 13.6651 30.7249C13.6651 31.7876 14.3965 32.4867 15.3292 32.3344C15.9605 32.2311 16.448 31.6967 16.5093 31.0333C16.5246 30.8649 16.5211 30.6942 16.5211 30.5234C16.5211 26.9666 16.5187 23.4098 16.5211 19.8518C16.5222 18.1047 17.7647 16.8368 19.3664 16.9338C20.6666 17.0112 21.756 18.1538 21.8079 19.5163C21.8302 20.1098 21.8161 20.7056 21.8161 21.3003C21.8161 24.4566 21.8137 27.6128 21.8173 30.7691C21.8185 31.8073 22.5922 32.5051 23.525 32.3257C24.1869 32.198 24.6615 31.6119 24.6709 30.8785C24.6815 29.9558 24.6744 29.0331 24.6744 28.1104C24.6744 26.0587 24.6744 24.0069 24.6721 21.9551C24.6697 20.3801 25.8357 19.0851 27.2831 19.0642C28.7764 19.0421 29.9659 20.2769 29.9706 21.8863C29.9812 24.8608 29.9706 27.8352 29.9765 30.8097C29.9777 31.8183 30.7574 32.5027 31.6842 32.3245C32.352 32.1967 32.8254 31.5984 32.8301 30.8379C32.8384 29.4656 32.836 28.0944 32.8325 26.7221C32.829 25.1151 33.982 23.8361 35.4588 23.8177C36.9534 23.798 38.1287 25.0635 38.1287 26.7C38.1287 33.692 38.1322 40.6852 38.1275 47.6784C38.1275 49.1564 37.5139 50.2904 36.2985 51.0595C35.1738 51.7721 34.5979 52.8151 34.5661 54.185C34.5484 54.9369 34.5284 55.6901 34.5249 56.442C34.5237 56.7491 34.4413 56.899 34.1103 56.9027C32.3661 56.9187 30.6219 56.9826 28.8777 56.9813C23.6439 56.9764 18.4101 56.9482 13.1763 56.9285C12.9208 56.9285 12.664 56.8904 12.4096 56.9052C12.0693 56.9248 11.9668 56.7491 11.9692 56.4297C11.9751 55.6286 11.9586 54.8276 11.9727 54.0265C11.9904 53.0068 11.6618 52.1394 11.0305 51.3629C8.37948 48.1047 6.01697 44.6437 4.26452 40.7601C3.63916 39.373 3.11625 37.9429 2.93606 36.4109C2.86421 35.8015 2.84655 35.1687 2.91957 34.5618C3.11271 32.9548 4.07373 31.9768 5.51998 31.3539L5.5188 31.3564Z" fill="#EEE9E6"/>
</g>
<defs>
<clipPath id="clip0_360_3546">
<rect width="41" height="60" fill="white"/>
</clipPath>
</defs>
</svg>
