<svg width="1728" height="895" viewBox="0 0 1728 895" fill="none" xmlns="http://www.w3.org/2000/svg">
<g clip-path="url(#clip0_712_23)">
<path d="M951.799 -511.96L913.529 106.44C990.149 101.28 1037.36 98 1037.36 98C1149.02 93.56 1239.23 170.85 1227.44 260.85C1219.82 319.01 1212.2 377.17 1204.59 435.33C1422.59 421.83 1640.59 408.34 1858.59 394.84C1882.09 69.08 1905.59 -256.68 1929.09 -582.45C1603.33 -558.95 1277.56 -535.45 951.799 -511.95V-511.96Z" fill="#00917D"/>
<path d="M904.969 244.77L913.53 106.44C679.18 122.23 169.76 155.62 -104.8 166.53L-135.48 893.89L1040.65 816.11C1107.54 811.69 1161.98 760.63 1170.69 694.17C1181.99 607.89 1193.29 521.61 1204.59 435.32C1170.35 437.44 1136.12 439.56 1101.88 441.68C990.4 448.58 898.069 356.26 904.969 244.77Z" fill="#A7F2B5"/>
<path d="M1037.37 97.99C1037.37 97.99 990.151 101.27 913.541 106.43L904.98 244.76C898.08 356.24 990.41 448.57 1101.89 441.67C1136.13 439.55 1170.36 437.43 1204.6 435.31C1212.22 377.15 1219.84 318.99 1227.45 260.83C1239.24 170.83 1149.03 93.55 1037.37 97.98V97.99Z" fill="#A7F2B5"/>
</g>
<defs>
<clipPath id="clip0_712_23">
<rect width="2065.63" height="1477.42" fill="white" transform="translate(-136 -583)"/>
</clipPath>
</defs>
</svg>
