<svg width="122" height="54" viewBox="0 0 122 54" fill="none" xmlns="http://www.w3.org/2000/svg">
<g id="Acme_logotipas_tamsi me&#204;&#135;lyna 1" clip-path="url(#clip0_309_932)">
<path id="Vector" d="M85.954 42.9127C85.9205 43.0132 85.9042 43.0629 85.8036 43.0629C85.7202 43.0629 85.6531 43.0294 85.5362 42.8793C84.8174 42.0292 83.8648 41.662 82.6793 41.662C80.4905 41.662 78.4856 43.1623 78.4856 45.9965C78.4856 48.8307 80.4905 50.331 82.6793 50.331C83.8658 50.331 84.852 49.9982 85.5199 49.1309C85.5697 49.064 85.6033 49.0467 85.6704 49.0467C85.7375 49.0467 85.77 49.0802 85.77 49.1472V49.7477C85.77 51.5979 84.7259 52.6651 82.9132 52.6651C81.3089 52.6651 80.3979 51.9479 80.2231 50.8645H78.5517C78.7276 52.6985 80.2058 53.999 82.8959 53.999C85.6368 53.999 87.2737 52.4155 87.2737 49.6645V41.9125H86.2712L85.954 42.9127ZM82.9294 48.9981C81.3424 48.9981 80.0055 47.9147 80.0055 45.9975C80.0055 44.0803 81.3424 42.9969 82.9294 42.9969C84.5175 42.9969 85.8534 44.0803 85.8534 45.9975C85.8534 47.9147 84.5165 48.9981 82.9294 48.9981Z" fill="#E6F5E4"/>
<path id="Vector_2" d="M90.4366 43.0639C90.403 43.1471 90.3695 43.1968 90.2699 43.1968C90.1855 43.1968 90.1529 43.1633 90.1529 43.0802V41.9136H88.6493V50.5826H90.1529V45.6638C90.1529 43.9972 90.9215 43.3469 92.3754 43.3469H93.3493V41.8801H92.6092C91.4228 41.8801 90.8219 42.2301 90.4376 43.0639H90.4366Z" fill="#E6F5E4"/>
<path id="Vector_3" d="M100.875 46.4144C100.875 48.498 99.8723 49.4992 98.2019 49.4992C96.6982 49.4992 95.8625 48.6653 95.8625 47.0819V41.9136H94.3589V47.3314C94.3589 49.5824 95.6958 50.8331 97.8684 50.8331C99.1382 50.8331 100.007 50.3665 100.592 49.6331C100.659 49.5489 100.693 49.5002 100.775 49.5002C100.857 49.5002 100.892 49.5337 100.892 49.6168V50.5836H102.379V41.9146H100.876V46.4154L100.875 46.4144Z" fill="#E6F5E4"/>
<path id="Vector_4" d="M108.396 41.663C107.176 41.663 106.19 42.0302 105.506 42.8965C105.456 42.9634 105.405 43.0131 105.322 43.0131C105.238 43.0131 105.205 42.9634 105.205 42.8802V41.9135H103.717V53.7504H105.221V49.632C105.221 49.5478 105.254 49.4991 105.338 49.4991C105.421 49.4991 105.471 49.5488 105.521 49.6158C106.189 50.4658 107.175 50.833 108.395 50.833C110.5 50.833 112.672 49.4159 112.672 46.248C112.672 43.0811 110.5 41.664 108.395 41.664L108.396 41.663ZM108.146 49.4981C106.391 49.4981 105.139 48.3305 105.139 46.247C105.139 44.1634 106.392 42.9969 108.146 42.9969C109.9 42.9969 111.153 44.1634 111.153 46.247C111.153 48.3305 109.9 49.4981 108.146 49.4981Z" fill="#E6F5E4"/>
<path id="Vector_5" d="M117.856 49.5316C116.244 49.5316 115.041 48.6146 114.94 46.6639H121.966V45.8301C121.966 43.4128 120.53 41.663 117.822 41.663C115.149 41.663 113.445 43.4128 113.445 46.247C113.445 49.0812 114.982 50.832 117.856 50.832C120.613 50.832 121.749 49.1481 122 47.8304H120.429C120.187 48.8144 119.477 49.5306 117.856 49.5306V49.5316ZM117.822 42.9634C119.409 42.9634 120.396 43.8135 120.463 45.4142H114.982C115.232 43.781 116.386 42.9634 117.822 42.9634Z" fill="#E6F5E4"/>
<path id="Vector_6" d="M116.575 39.6007C116.575 40.2337 117.088 40.7459 117.723 40.7459C118.357 40.7459 118.871 40.2337 118.871 39.6007C118.871 38.9677 118.357 38.4554 117.723 38.4554C117.09 38.4554 116.575 38.9677 116.575 39.6007Z" fill="#E6F5E4"/>
<path id="Vector_7" d="M42.763 8.69434C35.017 8.69434 30.5 14.5494 30.5 22.2273C30.5 29.8565 34.8696 35.2348 42.5648 35.2348C49.2179 35.2348 53.7359 30.9957 53.7359 25.1508V24.7044H48.4238V25.0017C48.4238 28.618 46.5369 30.38 42.4163 30.38C37.6502 30.38 35.8131 27.5782 35.8131 22.2273C35.8131 16.8774 37.6502 13.4985 42.4163 13.4985C46.5369 13.4985 48.4238 15.8367 48.4238 19.4529V19.7502H53.7359V19.3048C53.7359 13.4092 49.2677 8.69434 42.763 8.69434Z" fill="#E6F5E4"/>
<path id="Vector_8" d="M85.1926 8.69429C79.788 8.69429 77.1935 11.9241 76.0518 14.4996H75.9033C74.7118 11.3784 71.6862 8.69429 67.3664 8.69429C57.1021 8.69429 56.1658 15.8934 56.1658 19.038V34.7783H61.5287V20.1467C61.5287 15.6885 63.4156 13.3006 67.4864 13.3006C71.9546 13.3006 73.2956 15.8366 73.2956 20.2451V34.7773H78.6585V20.1954C78.6585 15.6875 80.5454 13.2996 84.6162 13.2996C89.0844 13.2996 90.4254 15.8356 90.4254 20.2441V34.7763H95.7873V19.0553C95.7873 13.4568 92.1619 8.69226 85.1936 8.69226L85.1926 8.69429Z" fill="#E6F5E4"/>
<path id="Vector_9" d="M116.395 26.6369C116.395 28.8655 114.78 30.4429 110.588 30.4429C105.337 30.4429 103.671 27.9749 103.468 23.4659H121.697C121.849 22.7234 122 21.3854 122 20.0971C122 13.3595 117.568 8.69336 110.487 8.69336C102.805 8.69336 98.3687 14.5484 98.3687 22.1776C98.3687 29.8566 102.256 35.1983 110.538 35.1983C117.304 35.1983 121.799 31.7393 121.799 26.6856V26.2393H116.395V26.6359V26.6369ZM110.387 13.2023C114.82 13.2023 116.798 15.5496 116.805 19.3911H103.574C103.998 15.8945 105.717 13.2023 110.387 13.2023Z" fill="#E6F5E4"/>
<path id="Vector_10" d="M14.2648 0C1.9825 0 0 11.1999 0 34.7793H5.26328C5.26328 30.9916 5.33038 27.7293 5.4595 24.8931H23.0692C23.1973 27.7293 23.2654 30.9916 23.2654 34.7793H28.5287C28.5287 11.1999 26.5472 0 14.2648 0ZM5.77467 20.0504C6.89707 7.50445 9.84133 5.37525 14.2638 5.37525C18.6873 5.37525 21.6306 7.50445 22.753 20.0504H5.77467Z" fill="#E6F5E4"/>
</g>
<defs>
<clipPath id="clip0_309_932">
<rect width="122" height="54" fill="white"/>
</clipPath>
</defs>
</svg>
