<svg width="150" height="42" viewBox="0 0 150 42" fill="none" xmlns="http://www.w3.org/2000/svg">
<g id="Group">
<path id="Vector" d="M19.2632 15.7619C19.0185 14.738 18.3037 12.4365 18.109 10.7374C17.6793 6.97395 19.1784 4.49542 20.5551 3.92781C22.1001 3.36202 22.7036 4.38043 23.3015 6.74762C24.0747 10.3522 24.1609 15.0757 23.9009 21.8378C23.563 31.0747 20.042 42.2299 11.2895 41.9981C3.73441 41.7809 0.391407 35.3583 0.0437568 25.5592C-0.120334 20.9398 0.131365 16.3222 1.58871 9.79193C2.36189 6.29499 3.05162 5.05026 5.45041 4.38044C7.33606 3.92781 7.16641 6.51584 6.73949 9.56745C5.79945 16.3222 5.3628 19.5837 5.71045 27.2474C6.04698 35.3583 8.88519 38.5139 11.9751 38.5139C16.61 38.6307 18.6681 33.5624 19.5302 26.2327C20.2102 20.3777 19.6971 17.5615 19.2632 15.7619ZM118.085 23.7615C119.89 23.7615 120.407 26.563 119.976 28.2604C119.545 29.9468 118.003 31.8705 115.601 32.4308C115.084 30.7371 114.825 23.7615 118.085 23.7615ZM84.5352 27.5796C84.5352 25.6724 83.7579 24.0936 82.822 24.0936C82.0405 24.0936 80.2452 25.2161 80.2452 28.8225C80.2452 31.6478 81.01 32.9875 81.3605 33.5624C83.8427 32.544 84.5352 29.8336 84.5352 27.5796ZM57.8385 4.60493C57.7175 2.79806 56.6384 1.56792 55.1783 1.56792C53.5499 1.56792 52.016 3.811 52.1787 6.629C52.283 8.48698 53.1174 10.0146 54.7569 10.0146C56.6384 10.0164 58.0109 7.20026 57.8385 4.60493ZM71.7959 11.221C71.6471 8.07085 71.0659 6.64907 69.7768 6.76588C68.0677 6.90094 67.2779 13.9587 67.6269 21.3778C67.8494 26.2181 68.3987 26.9645 68.9104 26.9171C69.856 26.8423 72.1241 18.1948 71.7959 11.221ZM128.728 23.0789C127.665 28.87 124.44 37.3897 119.628 37.3897C118.515 37.3897 116.54 36.8221 116.54 35.3583C116.54 33.7796 124.098 33.5624 124.098 26.01C124.098 23.1975 122.125 19.2497 119.204 19.2497C115.343 19.2497 111.575 24.7744 111.575 32.4326C111.575 39.2988 114.825 41.5528 118.086 41.5528C123.753 41.5528 127.186 35.466 128.987 30.4013C129.849 33.7814 130.355 41.5528 132.51 41.5528C133.365 41.5528 133.97 40.9888 135 37.9518C137.569 30.3994 140.06 21.7264 143.495 21.7264C144.779 21.7264 144.01 24.7744 147.098 24.7744C148.554 24.7744 149.581 23.1975 149.581 21.387C149.581 18.7935 147.781 16.773 145.037 16.773C136.968 16.773 135.257 32.6571 133.968 32.6571C131.821 32.6571 132.508 19.9269 130.96 19.9269C129.586 19.925 128.912 22.0732 128.728 23.0789ZM60.0718 36.5939C61.3581 36.5939 63.5705 36.0464 65.3116 32.387C64.3159 29.4851 63.6053 23.6209 63.5066 21.4855C62.9948 10.5658 66.2002 0.293975 69.7086 0.00925559C72.2812 -0.195159 74.3393 3.00065 74.5757 8.17853C75.2085 21.7848 71.7556 27.4646 70.0271 32.3651C70.3191 34.2651 72.7749 37.4992 75.0917 37.4992C75.9469 37.4992 76.9815 36.9352 77.2415 36.4789C77.0691 35.6959 76.8939 34.683 76.8939 33.2138C76.8939 25.3292 80.757 18.6803 84.1055 18.6803C86.7657 18.6803 88.3107 23.2979 88.3107 26.3458C88.3107 29.945 85.9912 32.8798 82.5606 35.6959C83.1641 36.4789 84.2738 37.0484 85.2222 37.0484C90.1185 37.0484 92.68 29.2733 94.5767 22.1736C94.9188 20.8194 95.5237 18.9084 96.7224 18.9084C98.7819 18.9084 99.6441 36.7071 103.068 36.7071C104.532 36.7071 105.731 32.7612 105.731 29.7278C105.731 27.4719 105.13 27.2456 105.13 23.9786C105.13 20.3777 106.59 17.3388 108.569 17.3388C109.769 17.3388 110.203 18.9084 110.203 20.8193C110.203 28.0304 106.249 41.4378 100.421 41.4378C96.0369 41.4378 96.379 31.5237 94.8354 31.5237C93.111 31.5237 90.7081 41.5491 82.2199 41.5491C80.8404 41.5491 79.3844 40.6493 78.1857 38.8425C76.129 40.6493 74.4075 41.4378 72.4328 41.4378C69.2609 41.4378 67.8842 37.1561 66.6006 37.1561C65.0529 37.1561 63.3411 41.5491 58.1861 41.5491C54.0672 41.5491 53.3802 34.3472 51.9243 34.3472C50.6338 34.3472 48.6605 41.5491 46.5162 41.5491C42.9062 41.5491 42.1414 29.0488 38.9597 29.0488C36.4719 29.0488 28.6081 41.7444 26.4735 41.4542C25.6155 41.3374 25.2539 40.496 25.3443 39.3681C25.4653 37.8094 26.4874 33.6372 26.9018 31.6642C27.5957 28.2385 28.2326 24.4842 28.5886 23.2869C28.9418 22.0787 29.8944 21.2172 30.6592 21.3103C31.0444 21.3578 31.1598 22.3014 31.2794 23.0807C31.7133 25.8658 32.3182 28.7057 33.001 28.7057C34.2066 28.7057 38.1879 18.6785 40.5047 18.6785C43.3415 18.6785 43.6808 34.453 47.5411 34.453C48.8316 34.453 49.7786 32.429 50.6338 29.9431C50.7214 25.7691 51.5794 19.8119 54.1534 19.8119C55.957 19.8119 56.8164 25.1011 55.5245 29.726C55.5217 35.2415 58.2654 36.5939 60.0718 36.5939Z" fill="#E6F5E4"/>
</g>
</svg>
