<svg width="110" height="21" viewBox="0 0 110 21" fill="none" xmlns="http://www.w3.org/2000/svg">
<g id="Group 1000004254">
<path id="Vector" d="M103.89 17.6062C103.89 16.0009 105.193 14.6985 106.797 14.6985C108.402 14.6985 109.704 16.0009 109.704 17.6062C109.704 19.2114 108.402 20.513 106.797 20.513C105.193 20.513 103.89 19.2114 103.89 17.6062Z" fill="#E6F5E4"/>
<path id="Vector_2" d="M11.1596 9.90314C11.1596 8.06144 10.8038 6.69511 10.092 5.80497C9.37933 4.91567 8.29982 4.47144 6.84854 4.47144H5.30472V15.7337H6.48588C8.09789 15.7337 9.27918 15.2558 10.0313 14.2966C10.7826 13.3392 11.1596 11.8744 11.1596 9.90314ZM16.6653 9.71133C16.6653 13.0666 15.7633 15.652 13.9595 17.4668C12.1557 19.2824 9.61994 20.1902 6.3513 20.1902H0V0.0847168H6.79465C9.94631 0.0847168 12.3794 0.910065 14.0941 2.55993C15.8079 4.21064 16.6653 6.59332 16.6653 9.71133Z" fill="#E6F5E4"/>
<path id="Vector_3" d="M34.2588 20.1935H39.3127V0.00390625H34.2588V20.1935Z" fill="#E6F5E4"/>
<path id="Vector_4" d="M46.4095 12.6574C46.4095 13.9446 46.5778 14.9264 46.9135 15.6012C47.25 16.2768 47.8137 16.6142 48.6062 16.6142C49.3903 16.6142 49.9448 16.2768 50.2679 15.6012C50.5909 14.9264 50.7516 13.9446 50.7516 12.6574C50.7516 11.3768 50.5884 10.411 50.2611 9.75892C49.933 9.1052 49.3736 8.77791 48.5802 8.77791C47.8045 8.77791 47.25 9.10353 46.9135 9.75137C46.5778 10.4 46.4095 11.3684 46.4095 12.6574ZM55.8956 12.6574C55.8956 15.1099 55.2528 17.0231 53.9638 18.3945C52.6758 19.7667 50.8728 20.4532 48.5549 20.4532C46.3321 20.4532 44.5627 19.7515 43.2494 18.3482C41.9344 16.9448 41.2773 15.0484 41.2773 12.6574C41.2773 10.2124 41.921 8.31266 43.21 6.9581C44.4988 5.60354 46.306 4.92627 48.6332 4.92627C50.071 4.92627 51.3432 5.2401 52.4453 5.8669C53.5483 6.4937 54.3998 7.39141 54.9979 8.56088C55.597 9.72866 55.8956 11.095 55.8956 12.6574Z" fill="#E6F5E4"/>
<path id="Vector_5" d="M57.9033 20.1893H62.9581V12.4624V5.19238H57.9033V20.1893Z" fill="#E6F5E4"/>
<path id="Vector_6" d="M57.9033 3.37966H62.9581V0H57.9033V3.37966Z" fill="#E6F5E4"/>
<path id="Vector_7" d="M73.1983 16.366C73.8807 16.366 74.6933 16.1926 75.6415 15.8485V19.6219C74.96 19.9214 74.3122 20.136 73.6964 20.263C73.0805 20.3918 72.3577 20.4557 71.5307 20.4557C69.8337 20.4557 68.6104 20.0291 67.8591 19.1777C67.1112 18.3263 66.7359 17.0188 66.7359 15.2545V9.07238H64.9658V5.19547H66.7359V1.36569L71.8295 0.479736V5.19547H75.0543V9.07238H71.8295V14.9096C71.8295 15.8805 72.2863 16.366 73.1983 16.366Z" fill="#E6F5E4"/>
<path id="Vector_8" d="M84.8983 16.366C85.5807 16.366 86.3935 16.1926 87.3417 15.8485V19.6219C86.6611 19.9214 86.0123 20.136 85.3964 20.263C84.7797 20.3918 84.0595 20.4557 83.2308 20.4557C81.5338 20.4557 80.3106 20.0291 79.5609 19.1777C78.8113 18.3263 78.4361 17.0188 78.4361 15.2545V9.07238H76.665V5.19547H78.4361V1.30764L83.5287 0.479736V5.19547H86.7552V9.07238H83.5287V14.9096C83.5287 15.8805 83.9855 16.366 84.8983 16.366Z" fill="#E6F5E4"/>
<path id="Vector_9" d="M93.7232 10.8299C93.7922 10.0088 94.0271 9.40724 94.4275 9.02275C94.8298 8.6391 95.3261 8.44729 95.9201 8.44729C96.5679 8.44729 97.0828 8.66265 97.4647 9.09678C97.8492 9.52839 98.0495 10.1064 98.0655 10.8299H93.7232ZM100.851 6.69395C99.6497 5.51607 97.9451 4.92627 95.74 4.92627C93.4221 4.92627 91.6385 5.60354 90.3883 6.9581C89.1389 8.31266 88.5137 10.2562 88.5137 12.7886C88.5137 15.2411 89.1893 17.1324 90.5372 18.4601C91.8858 19.7877 93.7796 20.4524 96.2187 20.4524C97.3898 20.4524 98.3979 20.3725 99.2426 20.2134C100.082 20.0561 100.895 19.7717 101.683 19.3611L100.907 15.9815C100.334 16.2154 99.7885 16.3954 99.2736 16.5141C98.5299 16.6865 97.7139 16.7732 96.8254 16.7732C95.8512 16.7732 95.0821 16.5351 94.5184 16.0589C93.9547 15.5818 93.6543 14.9239 93.6199 14.086H102.654V11.7832C102.654 9.56795 102.053 7.87098 100.851 6.69395Z" fill="#E6F5E4"/>
<path id="Vector_10" d="M23.3707 10.8299C23.4397 10.0088 23.6744 9.40724 24.0748 9.02275C24.4762 8.6391 24.9735 8.44729 25.5684 8.44729C26.2145 8.44729 26.7294 8.66265 27.1122 9.09678C27.4967 9.52839 27.6961 10.1064 27.7138 10.8299H23.3707ZM30.4994 6.69395C29.2972 5.51607 27.5934 4.92627 25.3875 4.92627C23.0687 4.92627 21.2858 5.60354 20.0364 6.9581C18.787 8.31266 18.1611 10.2562 18.1611 12.7886C18.1611 15.2411 18.8359 17.1324 20.1854 18.4601C21.5333 19.7877 23.4271 20.4524 25.8661 20.4524C27.0373 20.4524 28.0452 20.3725 28.8899 20.2134C29.7295 20.0561 30.5424 19.7717 31.3316 19.3611L30.5541 15.9815C29.9812 16.2154 29.4359 16.3954 28.9219 16.5141C28.1765 16.6865 27.3612 16.7732 26.4727 16.7732C25.4993 16.7732 24.7296 16.5351 24.1659 16.0589C23.6013 15.5818 23.3018 14.9239 23.2673 14.086H32.3016V11.7832C32.3016 9.56795 31.7009 7.87098 30.4994 6.69395Z" fill="#E6F5E4"/>
</g>
</svg>
