<svg width="89" height="25" viewBox="0 0 89 25" fill="none" xmlns="http://www.w3.org/2000/svg">
<g id="Group">
<path id="Vector" d="M11.3602 9.29539C11.2159 8.69156 10.7944 7.33429 10.6796 6.33222C10.4262 4.1128 11.3102 2.65112 12.1221 2.31637C13.0332 1.98271 13.3891 2.5833 13.7418 3.97932C14.1978 6.1051 14.2486 8.89069 14.0952 12.8785C13.896 18.3259 11.8195 24.9045 6.65786 24.7678C2.20232 24.6398 0.230827 20.8521 0.025805 15.0732C-0.0709654 12.349 0.0774706 9.62583 0.936923 5.77467C1.39289 3.71239 1.79966 2.97833 3.21431 2.58331C4.32635 2.31637 4.2263 3.84263 3.97453 5.64228C3.42015 9.62583 3.16264 11.5493 3.36766 16.0688C3.56613 20.8521 5.23993 22.7131 7.06216 22.7131C9.79552 22.782 11.0092 19.793 11.5177 15.4704C11.9187 12.0175 11.6161 10.3567 11.3602 9.29539ZM69.639 14.013C70.7035 14.013 71.0086 15.6652 70.7543 16.6662C70.5001 17.6607 69.5906 18.7952 68.1743 19.1257C67.8693 18.1268 67.7167 14.013 69.639 14.013ZM49.8536 16.2647C49.8536 15.1399 49.3951 14.2089 48.8432 14.2089C48.3823 14.2089 47.3236 14.8709 47.3236 16.9977C47.3236 18.6639 47.7746 19.4539 47.9813 19.793C49.4452 19.1924 49.8536 17.594 49.8536 16.2647ZM34.1095 2.7157C34.0382 1.65012 33.4018 0.924661 32.5407 0.924661C31.5803 0.924661 30.6758 2.24749 30.7717 3.90937C30.8332 5.00509 31.3253 5.90598 32.2922 5.90598C33.4018 5.90706 34.2112 4.24626 34.1095 2.7157ZM42.3407 6.61745C42.253 4.75968 41.9102 3.9212 41.15 3.99009C40.1421 4.06974 39.6763 8.23196 39.8821 12.6073C40.0133 15.4618 40.3372 15.902 40.639 15.874C41.1967 15.8299 42.5343 10.7302 42.3407 6.61745ZM75.916 13.6105C75.2886 17.0257 73.3868 22.0501 70.5493 22.0501C69.8924 22.0501 68.7279 21.7153 68.7279 20.8521C68.7279 19.9211 73.1851 19.793 73.1851 15.3391C73.1851 13.6804 72.0214 11.3523 70.2992 11.3523C68.0218 11.3523 65.8002 14.6104 65.8002 19.1267C65.8002 23.1759 67.7167 24.5052 69.6398 24.5052C72.9817 24.5052 75.0065 20.9156 76.0685 17.9287C76.577 19.9221 76.8755 24.5052 78.1458 24.5052C78.6501 24.5052 79.0069 24.1726 79.6146 22.3816C81.1293 17.9277 82.5989 12.8129 84.6245 12.8129C85.3814 12.8129 84.9279 14.6104 86.7493 14.6104C87.608 14.6104 88.2132 13.6804 88.2132 12.6127C88.2132 11.0832 87.152 9.89169 85.534 9.89169C80.775 9.89169 79.7663 19.2591 79.0061 19.2591C77.7398 19.2591 78.145 11.7516 77.2322 11.7516C76.422 11.7505 76.0242 13.0174 75.916 13.6105ZM35.4266 21.5808C36.1851 21.5808 37.4899 21.2579 38.5167 19.0998C37.9295 17.3884 37.5104 13.9301 37.4522 12.6708C37.1504 6.23104 39.0407 0.173368 41.1098 0.00545837C42.6269 -0.115092 43.8407 1.76959 43.9801 4.82318C44.3532 12.8473 42.3169 16.1969 41.2976 19.0869C41.4698 20.2074 42.9181 22.1147 44.2843 22.1147C44.7887 22.1147 45.3988 21.7821 45.5522 21.513C45.4505 21.0512 45.3472 20.4539 45.3472 19.5874C45.3472 14.9376 47.6254 11.0165 49.6002 11.0165C51.169 11.0165 52.0801 13.7396 52.0801 15.5371C52.0801 17.6597 50.7122 19.3904 48.689 21.0512C49.0449 21.513 49.6994 21.8488 50.2587 21.8488C53.1462 21.8488 54.6568 17.2636 55.7754 13.0766C55.9772 12.2779 56.3339 11.151 57.0408 11.151C58.2554 11.151 58.7638 21.6475 60.7829 21.6475C61.6464 21.6475 62.3533 19.3205 62.3533 17.5316C62.3533 16.2012 61.9991 16.0678 61.9991 14.1411C61.9991 12.0175 62.8602 10.2254 64.0271 10.2254C64.7349 10.2254 64.9907 11.151 64.9907 12.2779C64.9907 16.5306 62.6592 24.4374 59.2222 24.4374C56.6365 24.4374 56.8382 18.5907 55.9279 18.5907C54.911 18.5907 53.4939 24.5031 48.4881 24.5031C47.6746 24.5031 46.8159 23.9724 46.109 22.9068C44.8961 23.9724 43.8809 24.4374 42.7163 24.4374C40.8457 24.4374 40.0338 21.9123 39.2769 21.9123C38.3641 21.9123 37.3546 24.5031 34.3145 24.5031C31.8854 24.5031 31.4803 20.2558 30.6217 20.2558C29.8606 20.2558 28.6969 24.5031 27.4323 24.5031C25.3034 24.5031 24.8523 17.1312 22.976 17.1312C21.5088 17.1312 16.8712 24.6182 15.6124 24.4471C15.1064 24.3782 14.8932 23.882 14.9465 23.2168C15.0178 22.2976 15.6206 19.8371 15.865 18.6736C16.2742 16.6533 16.6498 14.4392 16.8598 13.7332C17.0681 13.0206 17.6298 12.5126 18.0809 12.5675C18.308 12.5955 18.3761 13.1519 18.4466 13.6115C18.7025 15.254 19.0592 16.9288 19.4619 16.9288C20.1729 16.9288 22.5208 11.0154 23.8871 11.0154C25.5601 11.0154 25.7602 20.3182 28.0367 20.3182C28.7978 20.3182 29.3563 19.1246 29.8606 17.6586C29.9123 15.197 30.4183 11.6838 31.9363 11.6838C32.9999 11.6838 33.5067 14.803 32.7449 17.5305C32.7432 20.7832 34.3613 21.5808 35.4266 21.5808Z" fill="#E6F5E4"/>
</g>
</svg>
