<svg width="87" height="25" viewBox="0 0 87 25" fill="none" xmlns="http://www.w3.org/2000/svg">
<g id="Group 1000004249">
<path id="Vector" d="M47.078 16.009C47.078 18.6906 43.7217 18.5314 43.7217 18.5314H40.3836V13.6653H43.7399C47.1772 13.6458 47.078 16.009 47.078 16.009ZM40.3836 6.25727H42.9256C45.5668 6.39694 45.4676 8.36209 45.4676 8.36209C45.4676 10.8049 42.5485 10.8454 42.5485 10.8454H40.3836V6.25727ZM46.462 11.8189C46.462 11.8189 48.7456 10.8454 48.7261 8.24337C48.7261 8.24337 49.0836 3.99323 43.4424 3.47645H37.2062V21.2731H44.3572C44.3572 21.2731 50.3365 21.2927 50.3365 16.2478C50.3546 16.2674 50.4943 12.8315 46.462 11.8189ZM30.3135 8.39233e-05H56.5909V24.769H30.3135V8.39233e-05Z" fill="#E6F5E4"/>
<path id="Vector_2" d="M16.7827 16.009C16.7827 18.6906 13.4264 18.5314 13.4264 18.5314H10.0702V13.6653H13.4264C16.8832 13.6458 16.7827 16.009 16.7827 16.009ZM10.0702 6.25727H12.6121C15.2533 6.39694 15.1541 8.36209 15.1541 8.36209C15.1541 10.8049 12.235 10.8454 12.235 10.8454H10.0702V6.25727ZM16.1472 11.8189C16.1472 11.8189 18.4308 10.8454 18.4112 8.24337C18.4112 8.24337 18.7688 3.99323 13.1275 3.47645H6.91084V21.2731H14.0619C14.0619 21.2731 20.0412 21.2927 20.0412 16.2478C20.0412 16.2674 20.1794 12.8315 16.1472 11.8189ZM0 8.39233e-05H26.2774V24.769H0V8.39233e-05Z" fill="#E6F5E4"/>
<path id="Vector_3" d="M81.5258 4.767V8.06459C81.5258 8.06459 78.3078 6.09805 74.7728 6.05894C74.7728 6.05894 68.1581 5.91927 67.8606 12.3943C67.8606 12.3943 67.6218 18.3526 74.6932 18.6906C74.6932 18.6906 77.6724 19.0482 81.6851 16.4853V19.9016C81.6851 19.9016 76.2826 23.1195 70.0255 20.6362C70.0255 20.6362 64.7613 18.7102 64.563 12.4139C64.563 12.4139 64.3451 5.93883 71.3565 3.77395C71.3565 3.77395 73.2239 3.05884 76.5997 3.37729C76.5997 3.35774 78.6053 3.55607 81.5258 4.767ZM60.6104 24.769H86.8877V8.39233e-05H60.6104V24.769Z" fill="#E6F5E4"/>
</g>
</svg>
