<svg width="1728" height="806" viewBox="0 0 1728 806" fill="none" xmlns="http://www.w3.org/2000/svg">
<path d="M1383.93 419.386L1391.55 296.162C1344.46 277.62 1292.44 269.007 1238.07 272.932C823.708 302.816 409.358 332.707 -5 362.605V981H1589.05C1597.05 869.993 1605.06 758.978 1613.07 647.971C1616.51 600.286 1610.31 554.4 1596.22 512.061C1558.67 514.384 1521.11 516.714 1483.56 519.037C1427.15 522.529 1380.43 475.81 1383.92 419.393L1383.93 419.386Z" fill="#004A4E"/>
<path d="M1391.62 296.152L1384 419.378C1380.51 475.795 1427.23 522.515 1483.65 519.024C1521.2 516.701 1558.76 514.37 1596.31 512.047C1563.49 413.395 1487.87 334.034 1391.62 296.145V296.152Z" fill="#004A4E"/>
</svg>
