<svg width="1728" height="1555" viewBox="0 0 1728 1555" fill="none" xmlns="http://www.w3.org/2000/svg">
<path d="M1139.75 480.398L1158.27 181.156C740.588 205.046 271.341 228.936 -59.9162 252.836L-148.476 1554.48C283.575 1527.73 955.544 1500.98 1432.83 1474.24C1514.07 1469.68 1579.36 1405.65 1585.51 1324.52C1599.02 1146.21 1612.54 983.496 1626.07 821.212L1489.12 829.693C1291.32 841.934 1127.51 678.153 1139.75 480.388V480.398Z" fill="#00917D"/>
<path d="M1173.42 -63.5143L1158.28 181.156C1221.84 177.523 1284.23 173.88 1344.74 170.246C1522.1 159.588 1667.9 308.262 1653.71 485.343C1644.5 600.295 1635.29 710.651 1626.08 821.211C1715.89 815.654 1805.71 810.087 1895.52 804.53V-63.5143H1173.42H1173.42Z" fill="#A7F2B5"/>
</svg>
