<svg width="1180" height="1326" viewBox="0 0 1180 1326" fill="none" xmlns="http://www.w3.org/2000/svg">
<path d="M587.208 948.111L616.925 467.922L642.947 47.5406C859.445 31.9245 1075.94 16.3085 1292.44 0.692398C1292.44 0.651678 1292.44 0.600778 1292.44 0.560059C929.191 26.7633 565.931 52.9665 202.682 79.1697C96.876 86.8047 13.0194 171.512 6.47334 277.384L0.609375 372.19C91.1545 365.654 181.7 359.129 272.245 352.593C367.28 345.742 446.3 424.749 439.449 519.789C420.065 788.438 400.692 1057.09 381.308 1325.75C654.379 1308.84 927.45 1291.94 1200.51 1275.03C1200.51 1274.99 1200.51 1274.94 1200.51 1274.9C988.523 1288.02 776.535 1301.14 564.547 1314.27L587.208 948.132V948.111Z" fill="#00917D"/>
</svg>
