<svg width="51" height="48" viewBox="0 0 51 48" fill="none" xmlns="http://www.w3.org/2000/svg">
<g clip-path="url(#clip0_579_425)">
<path d="M23.5538 42.5798L6.53163 23.3673L10.2414 20.1488L23.0654 34.6231L38.414 12.3495C34.4107 7.72372 28.4661 4.79199 21.8297 4.79199C9.77401 4.79321 0 14.4647 0 26.3967C0 38.3286 9.77401 48.0002 21.8297 48.0002C33.8853 48.0002 43.6593 38.3274 43.6593 26.3967C43.6593 22.9255 42.8305 19.6459 41.3604 16.7398L23.5538 42.5798Z" fill="#CCA099"/>
<path d="M51.0008 2.75109L46.9259 0L38.416 12.3494C39.5692 13.6822 40.5607 15.1554 41.3624 16.7384L51.002 2.74987L51.0008 2.75109Z" fill="#743557"/>
<path d="M10.2411 20.1486L6.53125 23.3671L23.5534 42.5796L41.36 16.7396C40.5584 15.1554 39.5668 13.6822 38.4137 12.3506L23.0651 34.6241L10.2411 20.1498V20.1486Z" fill="#EEE9E6"/>
</g>
<defs>
<clipPath id="clip0_579_425">
<rect width="51" height="48" fill="white"/>
</clipPath>
</defs>
</svg>
