<svg width="34" height="34" viewBox="0 0 34 34" fill="none" xmlns="http://www.w3.org/2000/svg">
<g clip-path="url(#clip0_1058_222)">
<path d="M34 2.38072V19.6147C34 20.9873 32.9322 22.1242 31.5613 22.2083C28.5689 22.3928 25.5782 22.579 22.5859 22.7636C22.7836 20.0283 22.9814 17.2913 23.1775 14.5561C23.3323 12.4123 21.5495 10.6294 19.4057 10.7843C16.7067 10.9788 14.0076 11.1732 11.3086 11.3676L11.8606 2.43674C11.9446 1.0658 13.0816 -0.00195312 14.4542 -0.00195312H31.6157C32.9306 -0.00195312 33.9967 1.06415 33.9967 2.37907L34 2.38072Z" fill="#EEE9E6"/>
<path d="M22.5876 22.7641C22.375 25.7054 22.1641 28.6466 21.9515 31.5896C21.8527 32.949 20.7223 34.0019 19.3596 34.0019H2.38102C1.0661 34.0002 0 32.9341 0 31.6192V14.6027C0 13.24 1.05292 12.108 2.41233 12.0108C5.37831 11.7966 8.34593 11.5824 11.3119 11.3682L10.7945 19.7306C10.6709 21.7359 12.3319 23.3969 14.3372 23.2733C17.0873 23.1036 19.8375 22.9322 22.5876 22.7625V22.7641Z" fill="#EEE9E6"/>
</g>
<defs>
<clipPath id="clip0_1058_222">
<rect width="34" height="34" fill="white"/>
</clipPath>
</defs>
</svg>
