<svg width="64" height="63" viewBox="0 0 63 63" fill="none" xmlns="http://www.w3.org/2000/svg">
<g clip-path="url(#clip0_357_1448)">
<path d="M59.1866 28.2029H52.2205V21.6147C52.2205 20.6774 51.4631 19.9142 50.5256 19.9142H45.6301C44.6925 19.9142 43.929 20.6774 43.929 21.6147V28.2029H36.9721C33.6311 28.2029 32.2202 25.4461 33.793 22.1611C42.6616 3.60855 45.0284 1.93301e-06 48.0793 1.93301e-06C51.1211 -0.00305098 53.4971 3.60855 62.3566 22.1611C63.9324 25.4491 62.5215 28.2029 59.1866 28.2029Z" fill="#2E133A"/>
<path d="M52.2196 28.2027V36.9005C52.2196 51.4263 40.2878 63.2197 25.7021 62.9968C11.376 62.777 0 50.8249 0 36.5036V21.6145C0 20.6773 0.75738 19.9141 1.69494 19.9141H6.59043C7.528 19.9141 8.29148 20.6773 8.29148 21.6145V36.583C8.29148 46.5508 16.4516 54.8791 26.4198 54.7112C36.1038 54.5464 43.9281 46.621 43.9281 36.9035V28.2058H52.2196V28.2027Z" fill="#2E133A"/>
</g>
<defs>
<clipPath id="clip0_357_1448">
<rect width="63" height="63" fill="white"/>
</clipPath>
</defs>
</svg>
