<svg width="64" height="63" viewBox="0 0 71 71" fill="none" xmlns="http://www.w3.org/2000/svg">
<path d="M9.88785 30.1304C9.11441 30.897 9.11441 32.1474 9.88785 32.9209L23.5135 46.0831C25.7895 48.3558 28.7709 49.4904 31.7556 49.4904C34.7404 49.4904 37.7285 48.3523 39.9978 46.0831L55.9096 30.1712V35.4116C55.9096 49.8277 45.6743 62.5265 30.2428 69.7976C28.7947 70.4791 27.1081 70.4791 25.66 69.7976C10.2388 62.5265 0 49.8277 0 35.4116V3.63213C0 1.62867 1.62867 0 3.63213 0H52.2809C54.2878 0 55.9131 1.62867 55.9131 3.63213V17.0908L33.4627 39.5412C32.5222 40.4816 30.9958 40.4816 30.0622 39.5412L16.4332 26.3722C15.6597 25.6055 14.4161 25.6055 13.6426 26.3722L9.89126 30.1269L9.88785 30.1304Z" fill="#2E133A"/>
<path d="M69.7129 16.3684L55.9102 30.1712V17.0907L63.171 9.82986C63.9376 9.06322 65.1881 9.06322 65.9616 9.82986L69.7129 13.5812C70.4796 14.3547 70.4796 15.6017 69.7129 16.3718V16.3684Z" fill="#2E133A"/>
</svg>
