<svg width="393" height="1007" viewBox="0 0 393 1007" fill="none" xmlns="http://www.w3.org/2000/svg">
<path d="M202.978 366.357L369.198 354.354C380.268 334.563 387.234 312.153 388.966 288.237C397.851 165.002 406.736 41.7668 415.621 -81.4781C246.282 -69.2492 76.9533 -57.0202 -92.3757 -44.801L-123.479 458.005C-58.6063 453.988 6.27576 449.971 71.148 445.944C99.0628 401.163 147.227 370.384 202.978 366.357Z" fill="#CCA099"/>
<path d="M369.198 354.364C343.527 400.267 295.815 432.031 240.339 435.467C183.939 438.963 127.549 442.458 71.1482 445.953C56.8513 468.895 47.858 495.519 45.8999 524.103L22.5014 876.705C17.6603 949.695 77.7702 1010.41 150.76 1006.32C334.583 996.021 518.405 987.377 702.228 975.994C718.975 743.683 735.722 559.027 752.469 326.706C624.712 335.932 496.955 345.148 369.198 354.374V354.364Z" fill="#743557"/>
</svg>
