<svg width="1728" height="1240" viewBox="0 0 1728 1240" fill="none" xmlns="http://www.w3.org/2000/svg">
<path d="M1080.15 437.32C1140.86 433.55 1204.87 429.78 1270.09 426.01C1291.31 131.85 1312.53 -162.31 1333.75 -456.46C947.599 -428.6 328.679 -400.75 -57.4707 -372.89L-122.471 772.93C155.519 755.72 553.669 738.51 897.069 721.3L903.719 613.78C909.589 518.87 985.239 443.22 1080.15 437.32Z" fill="#CCA099"/>
<path d="M1270.09 426.01C1268.65 446.01 1267.2 466.01 1265.76 486.01C1256.82 609.9 1157.06 707.75 1033.03 714.31C989.009 716.64 943.539 718.97 897.079 721.3L865.039 1239.11C1128.62 1222.79 1530.62 1206.47 1794.19 1190.15C1813.41 923.66 1833.31 657.17 1852.54 390.68C1689.28 402.46 1473.81 414.23 1270.1 426.01H1270.09Z" fill="#743557"/>
</svg>
