<svg width="1728" height="1571" viewBox="0 0 1728 1571" fill="none" xmlns="http://www.w3.org/2000/svg">
<path d="M1524.21 422.12L1928.89 392.93C1934.46 290.63 1940.63 188.34 1948.01 86.04C1761.53 99.49 1462.24 112.94 1151.54 126.4C1144.36 195.76 1137.19 271.41 1130.01 370.91C1112.11 618.99 913.499 815.6 665.239 830.97C477.499 842.59 289.759 854.22 102.019 865.84L83.9794 1157.37C75.7794 1289.87 184.239 1400.26 316.859 1394.36C572.329 1382.99 904.889 1371.63 1211.04 1360.26L1252.08 697.03C1261.17 550.19 1377.46 432.7 1524.2 422.12H1524.21Z" fill="#CCA099"/>
<path d="M371.099 162.06C593.509 150.17 876.979 138.28 1151.54 126.4C1163.88 7.18002 1176.22 -93.42 1188.55 -264.46C773.609 -234.53 358.669 -204.39 -56.2709 -174.46L-132.461 880.36C-54.3009 875.52 23.8591 870.68 102.019 865.84L130.829 400.33C138.809 271.42 242.129 168.96 371.099 162.06Z" fill="#743557"/>
<path d="M1928.89 392.93C1911.88 705.57 1900.56 1018.21 1878.01 1330.85C1719.64 1340.66 1475.17 1350.46 1211.05 1360.27L1210.24 1373.43C1203.33 1485.03 1295.76 1577.46 1407.37 1570.55C1718.3 1551.3 2029.23 1532.05 2340.17 1512.8C2367.96 1127.62 2395.74 742.43 2423.53 357.25C2258.66 369.14 2093.78 381.04 1928.91 392.93H1928.89Z" fill="#743557"/>
</svg>
