<svg width="149" height="66" viewBox="0 0 149 66" fill="none" xmlns="http://www.w3.org/2000/svg">
<g clip-path="url(#clip0_826_179)">
<path d="M104.977 52.4489C104.936 52.5716 104.916 52.6323 104.793 52.6323C104.691 52.6323 104.609 52.5914 104.466 52.4079C103.589 51.369 102.425 50.9202 100.977 50.9202C98.304 50.9202 95.8555 52.7538 95.8555 56.2179C95.8555 59.6819 98.304 61.5156 100.977 61.5156C102.426 61.5156 103.631 61.1089 104.447 60.0489C104.507 59.9671 104.548 59.946 104.63 59.946C104.712 59.946 104.752 59.9869 104.752 60.0687V60.8027C104.752 63.0641 103.477 64.3684 101.263 64.3684C99.3036 64.3684 98.191 63.4918 97.9775 62.1677H95.9362C96.151 64.4093 97.9564 65.9987 101.242 65.9987C104.589 65.9987 106.588 64.0634 106.588 60.701V51.2264H105.364L104.977 52.4489ZM101.283 59.8865C99.3446 59.8865 97.7118 58.5624 97.7118 56.2191C97.7118 53.8759 99.3446 52.5518 101.283 52.5518C103.222 52.5518 104.854 53.8759 104.854 56.2191C104.854 58.5624 103.221 59.8865 101.283 59.8865Z" fill="#15276A"/>
<path d="M110.451 52.6336C110.41 52.7353 110.369 52.796 110.248 52.796C110.145 52.796 110.105 52.7551 110.105 52.6535V51.2277H108.269V61.8231H110.105V55.8113C110.105 53.7743 111.044 52.9795 112.819 52.9795H114.009V51.1868H113.105C111.656 51.1868 110.922 51.6145 110.453 52.6336H110.451Z" fill="#15276A"/>
<path d="M123.2 56.7287C123.2 59.2753 121.975 60.499 119.935 60.499C118.099 60.499 117.078 59.4798 117.078 57.5445V51.2277H115.242V57.8495C115.242 60.6006 116.874 62.1293 119.528 62.1293C121.079 62.1293 122.14 61.559 122.854 60.6626C122.936 60.5597 122.977 60.5002 123.078 60.5002C123.178 60.5002 123.221 60.5411 123.221 60.6428V61.8243H125.037V51.2289H123.201V56.7299L123.2 56.7287Z" fill="#15276A"/>
<path d="M132.385 50.9214C130.895 50.9214 129.691 51.3702 128.855 52.429C128.794 52.5108 128.732 52.5716 128.63 52.5716C128.528 52.5716 128.487 52.5108 128.487 52.4092V51.2276H126.671V65.695H128.507V60.6613C128.507 60.5584 128.548 60.4989 128.65 60.4989C128.752 60.4989 128.813 60.5597 128.874 60.6415C129.689 61.6804 130.894 62.1293 132.384 62.1293C134.955 62.1293 137.608 60.3972 137.608 56.5253C137.608 52.6546 134.955 50.9226 132.384 50.9226L132.385 50.9214ZM132.08 60.4977C129.936 60.4977 128.407 59.0707 128.407 56.5241C128.407 53.9775 129.938 52.5517 132.08 52.5517C134.221 52.5517 135.752 53.9775 135.752 56.5241C135.752 59.0707 134.221 60.4977 132.08 60.4977Z" fill="#15276A"/>
<path d="M143.939 60.5386C141.97 60.5386 140.501 59.4178 140.378 57.0336H148.959V56.0145C148.959 53.0601 147.204 50.9214 143.898 50.9214C140.632 50.9214 138.551 53.0601 138.551 56.5241C138.551 59.9881 140.429 62.128 143.939 62.128C147.306 62.128 148.693 60.0699 149 58.4594H147.082C146.786 59.662 145.918 60.5373 143.939 60.5373V60.5386ZM143.898 52.5108C145.836 52.5108 147.041 53.5498 147.122 55.5062H140.429C140.734 53.5101 142.143 52.5108 143.898 52.5108Z" fill="#15276A"/>
<path d="M142.375 48.401C142.375 49.1746 143.002 49.8007 143.776 49.8007C144.551 49.8007 145.178 49.1746 145.178 48.401C145.178 47.6273 144.551 47.0012 143.776 47.0012C143.003 47.0012 142.375 47.6273 142.375 48.401Z" fill="#15276A"/>
<path d="M52.227 10.6265C42.7667 10.6265 37.25 17.7826 37.25 27.1668C37.25 36.4914 42.5867 43.0648 51.9849 43.0648C60.1103 43.0648 65.6283 37.8837 65.6283 30.7399V30.1944H59.1406V30.5576C59.1406 34.9776 56.836 37.1311 51.8036 37.1311C45.9826 37.1311 43.739 33.7068 43.739 27.1668C43.739 20.628 45.9826 16.4982 51.8036 16.4982C56.836 16.4982 59.1406 19.356 59.1406 23.7759V24.1391H65.6283V23.5949C65.6283 16.3891 60.1712 10.6265 52.227 10.6265Z" fill="#15276A"/>
<path d="M104.047 10.6264C97.4458 10.6264 94.2771 14.5739 92.8827 17.7218H92.7014C91.2462 13.9069 87.551 10.6264 82.2751 10.6264C69.7393 10.6264 68.5957 19.4253 68.5957 23.2687V42.5068H75.1455V24.6238C75.1455 19.1749 77.45 16.2564 82.4217 16.2564C87.8788 16.2564 89.5165 19.3559 89.5165 24.7441V42.5056H96.0663V24.6833C96.0663 19.1736 98.3709 16.2551 103.342 16.2551C108.8 16.2551 110.437 19.3546 110.437 24.7428V42.5044H116.986V23.2898C116.986 16.4473 112.558 10.6239 104.048 10.6239L104.047 10.6264Z" fill="#15276A"/>
<path d="M142.155 32.5561C142.155 35.28 140.182 37.2079 135.062 37.2079C128.649 37.2079 126.614 34.1914 126.367 28.6805H148.63C148.815 27.7729 149 26.1376 149 24.5631C149 16.3282 143.588 10.6251 134.939 10.6251C125.557 10.6251 120.139 17.7813 120.139 27.1059C120.139 36.4913 124.887 43.0201 135.001 43.0201C143.265 43.0201 148.754 38.7923 148.754 32.6156V32.0701H142.155V32.5549V32.5561ZM134.816 16.1361C140.231 16.1361 142.646 19.005 142.655 23.7001H126.496C127.014 19.4265 129.113 16.1361 134.816 16.1361Z" fill="#15276A"/>
<path d="M17.4218 0C2.42125 0 0 13.6887 0 42.5081H6.42811C6.42811 37.8786 6.51006 33.8914 6.66775 30.4249H28.1747C28.3311 33.8914 28.4143 37.8786 28.4143 42.5081H34.8424C34.8424 13.6887 32.4224 0 17.4218 0ZM7.05267 24.5061C8.42347 9.17211 12.0193 6.56975 17.4206 6.56975C22.8231 6.56975 26.4177 9.17211 27.7885 24.5061H7.05267Z" fill="#15276A"/>
</g>
<defs>
<clipPath id="clip0_826_179">
<rect width="149" height="66" fill="white"/>
</clipPath>
</defs>
</svg>
