<svg width="64" height="63" viewBox="0 0 63 62" fill="none" xmlns="http://www.w3.org/2000/svg">
<g id="Acme_ikona_spyna_tamsi me&#204;&#135;lyna" clip-path="url(#clip0_345_2487)">
<path id="Vector" d="M58.0424 24.4299H49.9855V31.0902C49.9855 31.9235 49.3009 32.5973 48.4543 32.5973H43.2185C42.3719 32.5973 41.6872 31.9235 41.6872 31.0902V24.4299H4.9576C2.219 24.4299 0 26.4455 0 28.9243V57.5116C0 59.9874 2.219 61.9999 4.9576 61.9999H58.0424C60.781 61.9999 63 59.9874 63 57.5086V28.9212C63 26.4424 60.781 24.4299 58.0424 24.4299ZM26.3651 56.0978C25.277 56.0978 24.4548 55.1231 24.6535 54.0702C24.9225 52.6293 25.1853 51.2966 25.4451 50.0662C26.0992 46.9256 26.7319 44.4498 27.4257 42.5967C27.658 41.9801 27.8995 41.4295 28.147 40.9482C28.1257 40.9362 28.1043 40.9181 28.0859 40.9031C26.9336 39.9645 26.2948 38.4454 26.2948 36.481C26.2948 33.0425 28.2601 30.9638 31.5031 30.9638C34.746 30.9638 36.7113 33.0425 36.7113 36.481C36.7113 38.4454 36.0725 39.9645 34.9232 40.9031C34.9019 40.9181 34.8805 40.9362 34.8621 40.9482C35.8524 42.8705 36.6929 45.8757 37.5671 50.0662C37.8238 51.2966 38.0836 52.6293 38.3557 54.0702C38.5543 55.1231 37.7321 56.0978 36.644 56.0978H26.3712H26.3651Z" fill="#15276A"/>
<path id="Vector_2" d="M49.9855 18.5126V24.4298H41.6872V18.4194C41.6872 12.7789 37.0567 8.07701 31.3258 8.17026C26.2581 8.2575 22.0799 11.9998 21.4106 16.831C21.3036 17.6071 20.6342 18.1907 19.8334 18.1907H14.451C13.6594 18.1907 13.0144 17.5319 13.0786 16.7588C13.8122 7.49642 21.6245 0.165316 31.1821 -0.0001379C41.5222 -0.171608 49.9855 8.33572 49.9855 18.5126Z" fill="#15276A"/>
</g>
<defs>
<clipPath id="clip0_345_2487">
<rect width="63" height="62" fill="white"/>
</clipPath>
</defs>
</svg>
