<svg width="81" height="82" viewBox="0 0 81 82" fill="none" xmlns="http://www.w3.org/2000/svg">
<g id="Group 1000004322">
<g id="Group 1000004300">
<circle id="Ellipse 10" cx="40.5" cy="41.0996" r="40.5" fill="#15276A"/>
</g>
<path id="Vector 40" d="M48.5 32.5996H50V31.0996H48.5V32.5996ZM47.4393 60.1603C48.0251 60.7461 48.9749 60.7461 49.5607 60.1603L59.1066 50.6143C59.6924 50.0285 59.6924 49.0788 59.1066 48.493C58.5208 47.9072 57.5711 47.9072 56.9853 48.493L48.5 56.9783L40.0147 48.493C39.4289 47.9072 38.4792 47.9072 37.8934 48.493C37.3076 49.0788 37.3076 50.0285 37.8934 50.6143L47.4393 60.1603ZM17 34.0996H48.5V31.0996H17V34.0996ZM47 32.5996V59.0996H50V32.5996H47Z" fill="#E7ECFF"/>
</g>
</svg>
