<svg width="187" height="35" viewBox="0 0 187 35" fill="none" xmlns="http://www.w3.org/2000/svg">
<g id="Group 1000004254">
<path id="Vector" d="M176.162 29.8543C176.162 27.1323 178.372 24.9238 181.092 24.9238C183.814 24.9238 186.022 27.1323 186.022 29.8543C186.022 32.5763 183.814 34.7833 181.092 34.7833C178.372 34.7833 176.162 32.5763 176.162 29.8543Z" fill="#15276A"/>
<path id="Vector_2" d="M18.923 16.7924C18.923 13.6695 18.3196 11.3526 17.1127 9.84322C15.9043 8.33527 14.0738 7.58199 11.6129 7.58199H8.99505V26.679H10.9979C13.7314 26.679 15.7344 25.8687 17.0099 24.2423C18.2838 22.6188 18.923 20.135 18.923 16.7924ZM28.2588 16.4671C28.2588 22.1565 26.7294 26.5406 23.6707 29.6178C20.612 32.6965 16.3123 34.2358 10.7697 34.2358H0V0.143555H11.5215C16.8657 0.143555 20.9915 1.54307 23.8989 4.34071C26.8051 7.13977 28.2588 11.18 28.2588 16.4671Z" fill="#15276A"/>
<path id="Vector_3" d="M58.0918 34.2418H66.6616V0.00683594H58.0918V34.2418Z" fill="#15276A"/>
<path id="Vector_4" d="M78.6956 21.4629C78.6956 23.6457 78.981 25.3105 79.5502 26.4547C80.1209 27.6003 81.0766 28.1723 82.4205 28.1723C83.7501 28.1723 84.6903 27.6003 85.2381 26.4547C85.7859 25.3105 86.0584 23.6457 86.0584 21.4629C86.0584 19.2916 85.7816 17.6538 85.2267 16.5481C84.6703 15.4396 83.7217 14.8846 82.3765 14.8846C81.0611 14.8846 80.1209 15.4368 79.5502 16.5353C78.981 17.6352 78.6956 19.2773 78.6956 21.4629ZM94.781 21.4629C94.781 25.6215 93.6909 28.8657 91.5053 31.1911C89.3212 33.518 86.2639 34.6821 82.3336 34.6821C78.5644 34.6821 75.564 33.4922 73.3371 31.1126C71.1073 28.733 69.9932 25.5174 69.9932 21.4629C69.9932 17.3171 71.0846 14.0957 73.2702 11.7988C75.4557 9.50194 78.5201 8.35352 82.4662 8.35352C84.9044 8.35352 87.0615 8.88568 88.9304 9.94852C90.8006 11.0114 92.2445 12.5336 93.2588 14.5166C94.2745 16.4968 94.781 18.8136 94.781 21.4629Z" fill="#15276A"/>
<path id="Vector_5" d="M98.1846 34.2345H106.756V21.1323V8.80469H98.1846V34.2345Z" fill="#15276A"/>
<path id="Vector_6" d="M98.1846 5.73079H106.756V0H98.1846V5.73079Z" fill="#15276A"/>
<path id="Vector_7" d="M124.121 27.7513C125.278 27.7513 126.656 27.4574 128.264 26.8739V33.2723C127.108 33.7802 126.01 34.144 124.965 34.3594C123.921 34.5777 122.695 34.6861 121.293 34.6861C118.415 34.6861 116.341 33.9628 115.067 32.5191C113.799 31.0753 113.163 28.8583 113.163 25.8667V15.3838H110.161V8.80982H113.163V2.31576L121.8 0.813477V8.80982H127.268V15.3838H121.8V25.2818C121.8 26.9281 122.574 27.7513 124.121 27.7513Z" fill="#15276A"/>
<path id="Vector_8" d="M143.96 27.7513C145.117 27.7513 146.495 27.4574 148.103 26.8739V33.2723C146.949 33.7802 145.849 34.144 144.805 34.3594C143.759 34.5777 142.538 34.6861 141.132 34.6861C138.255 34.6861 136.181 33.9628 134.909 32.5191C133.638 31.0753 133.002 28.8583 133.002 25.8667V15.3838H129.999V8.80982H133.002V2.21733L141.638 0.813477V8.80982H147.109V15.3838H141.638V25.2818C141.638 26.9281 142.412 27.7513 143.96 27.7513Z" fill="#15276A"/>
<path id="Vector_9" d="M158.924 18.3642C159.041 16.9718 159.439 15.9518 160.118 15.2998C160.8 14.6493 161.641 14.324 162.649 14.324C163.747 14.324 164.62 14.6892 165.268 15.4253C165.92 16.1572 166.259 17.1373 166.287 18.3642H158.924ZM171.01 11.3509C168.973 9.35362 166.082 8.35352 162.343 8.35352C158.413 8.35352 155.389 9.50194 153.269 11.7988C151.15 14.0957 150.09 17.3913 150.09 21.6855C150.09 25.8441 151.236 29.0511 153.521 31.3024C155.808 33.5536 159.019 34.6807 163.155 34.6807C165.141 34.6807 166.85 34.5452 168.283 34.2755C169.706 34.0087 171.084 33.5265 172.421 32.8303L171.104 27.0995C170.133 27.4961 169.208 27.8014 168.335 28.0026C167.074 28.295 165.69 28.442 164.184 28.442C162.532 28.442 161.228 28.0382 160.272 27.2307C159.316 26.4218 158.807 25.3063 158.748 23.8853H174.067V19.9806C174.067 16.2243 173.049 13.3468 171.01 11.3509Z" fill="#15276A"/>
<path id="Vector_10" d="M39.6296 18.3642C39.7466 16.9718 40.1446 15.9518 40.8236 15.2998C41.5042 14.6493 42.3475 14.324 43.3562 14.324C44.4518 14.324 45.3248 14.6892 45.974 15.4253C46.6259 16.1572 46.9641 17.1373 46.9941 18.3642H39.6296ZM51.7176 11.3509C49.679 9.35362 46.7899 8.35352 43.0494 8.35352C39.1174 8.35352 36.0943 9.50194 33.9757 11.7988C31.8572 14.0957 30.7959 17.3913 30.7959 21.6855C30.7959 25.8441 31.9401 29.0511 34.2285 31.3024C36.5139 33.5536 39.7252 34.6807 43.861 34.6807C45.8469 34.6807 47.556 34.5452 48.9883 34.2755C50.4121 34.0087 51.7904 33.5265 53.1286 32.8303L51.8104 27.0995C50.8388 27.4961 49.9143 27.8014 49.0426 28.0026C47.7786 28.295 46.3961 28.442 44.8895 28.442C43.2389 28.442 41.9338 28.0382 40.978 27.2307C40.0206 26.4218 39.5128 25.3063 39.4544 23.8853H54.7734V19.9806C54.7734 16.2243 53.7548 13.3468 51.7176 11.3509Z" fill="#15276A"/>
</g>
</svg>
