<svg width="148" height="42" viewBox="0 0 148 42" fill="none" xmlns="http://www.w3.org/2000/svg">
<g id="Group 1000004249">
<path id="Vector" d="M79.8299 27.1458C79.8299 31.693 74.1388 31.423 74.1388 31.423H68.4785V23.1718H74.1696C79.9981 23.1386 79.8299 27.1458 79.8299 27.1458ZM68.4785 10.6101H72.7889C77.2674 10.847 77.0992 14.1792 77.0992 14.1792C77.0992 18.3214 72.1494 18.3901 72.1494 18.3901H68.4785V10.6101ZM78.7855 20.0408C78.7855 20.0408 82.6577 18.3901 82.6246 13.9779C82.6246 13.9779 83.2308 6.77106 73.6652 5.89478H63.0906V36.0721H75.2164C75.2164 36.0721 85.3552 36.1052 85.3552 27.5508C85.386 27.584 85.6229 21.7579 78.7855 20.0408ZM51.4028 0H95.9606V42H51.4028V0Z" fill="#15276A"/>
<path id="Vector_2" d="M28.4579 27.1458C28.4579 31.693 22.7668 31.423 22.7668 31.423H17.0757V23.1718H22.7668C28.6284 23.1386 28.4579 27.1458 28.4579 27.1458ZM17.0757 10.6101H21.386C25.8646 10.847 25.6964 14.1792 25.6964 14.1792C25.6964 18.3214 20.7466 18.3901 20.7466 18.3901H17.0757V10.6101ZM27.3803 20.0408C27.3803 20.0408 31.2525 18.3901 31.2194 13.9779C31.2194 13.9779 31.8256 6.77106 22.26 5.89478H11.7185V36.0721H23.8444C23.8444 36.0721 33.9832 36.1052 33.9832 27.5508C33.9832 27.584 34.2177 21.7579 27.3803 20.0408ZM0 0H44.5578V42H0V0Z" fill="#15276A"/>
<path id="Vector_3" d="M138.241 8.08312V13.6747C138.241 13.6747 132.784 10.3401 126.79 10.2738C126.79 10.2738 115.573 10.037 115.069 21.0166C115.069 21.0166 114.664 31.1199 126.655 31.693C126.655 31.693 131.706 32.2993 138.511 27.9534V33.7464C138.511 33.7464 129.35 39.203 118.74 34.9921C118.74 34.9921 109.814 31.7262 109.477 21.0497C109.477 21.0497 109.108 10.0702 120.997 6.39923C120.997 6.39923 124.163 5.18665 129.888 5.72663C129.888 5.69347 133.288 6.02977 138.241 8.08312ZM102.775 42H147.333V0H102.775V42Z" fill="#15276A"/>
</g>
</svg>
