<svg width="64" height="63" viewBox="0 0 64 63" fill="none" xmlns="http://www.w3.org/2000/svg">
<g id="Acme_ikona_saugumas_tamsi me&#204;&#135;lyna" clip-path="url(#clip0_345_3112)">
<path id="Vector" d="M9.00325 26.9996C8.299 27.6865 8.299 28.8071 9.00325 29.5001L21.4099 41.2947C23.4823 43.3312 26.1969 44.3479 28.9146 44.3479C31.6324 44.3479 34.3532 43.3281 36.4194 41.2947L50.9078 27.0362V31.732C50.9078 44.6502 41.5881 56.0295 27.5372 62.5451C26.2186 63.1557 24.6829 63.1557 23.3644 62.5451C9.3228 56.0295 0 44.6502 0 31.732V3.25472C0 1.45944 1.48296 0 3.30719 0H47.6037C49.431 0 50.9109 1.45944 50.9109 3.25472V15.3149L30.469 35.4325C29.6127 36.2752 28.2228 36.2752 27.3727 35.4325L14.963 23.6319C14.2588 22.9449 13.1264 22.9449 12.4221 23.6319L9.00635 26.9965L9.00325 26.9996Z" fill="#E7ECFF"/>
<path id="Vector_2" d="M63.4757 14.6676L50.9077 27.0361V15.3148L57.519 8.80844C58.217 8.12147 59.3556 8.12147 60.0599 8.80844L63.4757 12.17C64.1737 12.8631 64.1737 13.9806 63.4757 14.6706V14.6676Z" fill="#E7ECFF"/>
</g>
<defs>
<clipPath id="clip0_345_3112">
<rect width="64" height="63" fill="white"/>
</clipPath>
</defs>
</svg>
