<svg width="1728" height="1949" viewBox="0 0 1728 1949" fill="none" xmlns="http://www.w3.org/2000/svg">
<path d="M1859.88 -518C1297 -477.379 734.119 -436.769 171.238 -396.148L84.1384 1011.73C83.9921 1014.13 83.8876 1016.53 83.8145 1018.92C160.976 1013.35 238.138 1007.79 315.3 1002.22C443.791 992.946 550.62 1099.81 541.351 1228.34C540.943 1234.02 540.536 1239.69 540.118 1245.38C939.438 1220.65 1338.75 1195.91 1738.07 1171.18C1778.68 608.125 1819.27 45.0676 1859.88 -517.99V-518Z" fill="#B4D7F6"/>
<path d="M83.8037 1018.91C-158.602 1036.4 -400.996 1053.9 -643.402 1071.39L-717 1949C-360.9 1926.94 -4.79016 1904.89 351.31 1882.83C420.529 1878.55 475.903 1823.71 480.898 1754.52C500.638 1480.8 520.378 1519.08 540.118 1245.37C470.302 1249.7 400.487 1254.01 330.682 1258.34C193.506 1266.84 79.4984 1155.29 83.8141 1018.91H83.8037Z" fill="#15276A"/>
<path d="M315.289 1002.21C238.127 1007.78 160.965 1013.34 83.8037 1018.91C79.4879 1155.29 193.496 1266.83 330.671 1258.34C400.487 1254.01 470.302 1249.7 540.107 1245.37C540.515 1239.69 540.922 1234.02 541.34 1228.33C550.609 1099.8 443.78 992.935 315.289 1002.21Z" fill="#307FEA"/>
</svg>
