<svg width="1728" height="2152" viewBox="0 0 1728 2152" fill="none" xmlns="http://www.w3.org/2000/svg">
<path d="M1366.31 1669.25C1463.72 1703.27 1540.23 1778.32 1572 1871.94C1727.54 1862.87 1883.08 1853.8 2038.62 1844.73C2049.45 1703.23 2073.74 1053.17 2093.91 558.337C1864.83 571.689 1635.75 585.05 1406.69 598.402L1366.31 1669.25Z" fill="#307FEA"/>
<path d="M1361.9 1786.23L1366.31 1669.26C1322.38 1653.91 1274.18 1646.91 1223.93 1650.32C774.931 1680.82 325.934 1711.33 -123.063 1741.83L-157 2258.42H1566.7C1573.49 2169.71 1580.28 2081.01 1587.09 1992.31C1590.31 1950.16 1584.77 1909.56 1572.01 1871.95C1534.63 1874.13 1497.26 1876.3 1459.88 1878.48C1404.41 1881.71 1358.47 1838.45 1361.91 1786.23H1361.9Z" fill="#15276A"/>
<path d="M1538.67 39.7289C1476.18 43.9721 1426.83 91.3901 1423.58 150.312L1406.69 598.41C1635.76 585.049 1864.84 571.698 2093.91 558.346C2104.65 294.962 2114.22 75.5593 2120 0.240234C1926.22 13.4062 1732.45 26.5629 1538.67 39.7289Z" fill="#B4D7F6"/>
</svg>
