<svg width="1728" height="1223" viewBox="0 0 1728 1223" fill="none" xmlns="http://www.w3.org/2000/svg">
<path d="M1288.01 1106.06C1439.49 1095.13 1590.96 1084.21 1742.44 1073.28C1751.91 850.5 1743.1 627.71 1759.17 404.93C1554.6 419.69 1228.23 434.44 974.09 449.2C965.95 530.44 900.09 594.21 818.14 599.29C808.18 599.91 798.23 600.52 788.27 601.14C787.86 604.51 787.54 607.9 787.33 611.33L749.5 1222.64C857.46 1215.96 1006.07 1209.27 1160.79 1202.59C1179.92 1149.27 1229.03 1110.33 1288.02 1106.07L1288.01 1106.06Z" fill="#15276A"/>
<path d="M787.95 601.16C788.06 601.16 788.16 601.15 788.27 601.14C798.19 519.43 865.21 455.64 948.34 450.71C956.83 450.21 965.42 449.7 974.09 449.2C974.25 447.64 974.39 446.08 974.5 444.51C998.45 112.52 1022.4 -219.47 1046.35 -551.46C665.78 -524.01 285.2 -496.55 -95.37 -469.1L-165.25 660.18C103.92 643.51 373.09 626.85 642.25 610.18L787.96 601.11V601.16H787.95Z" fill="#B4D7F6"/>
<path d="M788.27 601.14C798.23 600.52 808.18 599.91 818.14 599.29C900.09 594.22 965.949 530.44 974.089 449.2C965.419 449.7 956.829 450.21 948.339 450.71C865.209 455.64 798.19 519.43 788.27 601.14Z" fill="#307FEA"/>
</svg>
