<svg width="87" height="26" viewBox="0 0 87 26" fill="none" xmlns="http://www.w3.org/2000/svg">
<g id="Group 1000004249">
<path id="Vector" d="M47.079 16.3425C47.079 19.0241 43.7227 18.8649 43.7227 18.8649H40.3846V13.9988H43.7409C47.1781 13.9793 47.079 16.3425 47.079 16.3425ZM40.3846 6.59077H42.9266C45.5677 6.73044 45.4686 8.69559 45.4686 8.69559C45.4686 11.1384 42.5495 11.1789 42.5495 11.1789H40.3846V6.59077ZM46.463 12.1524C46.463 12.1524 48.7466 11.1789 48.7271 8.57686C48.7271 8.57686 49.0846 4.32673 43.4434 3.80995H37.2071V21.6066H44.3582C44.3582 21.6066 50.3375 21.6262 50.3375 16.5813C50.3556 16.6009 50.4953 13.165 46.463 12.1524ZM30.3145 0.33358H56.5918V25.1025H30.3145V0.33358Z" fill="#004A4E"/>
<path id="Vector_2" d="M16.7827 16.3425C16.7827 19.0241 13.4264 18.8649 13.4264 18.8649H10.0702V13.9988H13.4264C16.8832 13.9793 16.7827 16.3425 16.7827 16.3425ZM10.0702 6.59077H12.6121C15.2533 6.73044 15.1541 8.69559 15.1541 8.69559C15.1541 11.1384 12.235 11.1789 12.235 11.1789H10.0702V6.59077ZM16.1472 12.1524C16.1472 12.1524 18.4308 11.1789 18.4112 8.57686C18.4112 8.57686 18.7688 4.32673 13.1275 3.80995H6.91084V21.6066H14.0619C14.0619 21.6066 20.0412 21.6262 20.0412 16.5813C20.0412 16.6009 20.1794 13.165 16.1472 12.1524ZM0 0.33358H26.2774V25.1025H0V0.33358Z" fill="#004A4E"/>
<path id="Vector_3" d="M81.5268 5.1005V8.39809C81.5268 8.39809 78.3088 6.43155 74.7738 6.39244C74.7738 6.39244 68.1591 6.25277 67.8616 12.7278C67.8616 12.7278 67.6227 18.6861 74.6942 19.0241C74.6942 19.0241 77.6733 19.3817 81.686 16.8188V20.2351C81.686 20.2351 76.2836 23.453 70.0264 20.9697C70.0264 20.9697 64.7623 19.0437 64.564 12.7474C64.564 12.7474 64.3461 6.27232 71.3575 4.10745C71.3575 4.10745 73.2249 3.39234 76.6007 3.71079C76.6007 3.69123 78.6063 3.88956 81.5268 5.1005ZM60.6113 25.1025H86.8887V0.33358H60.6113V25.1025Z" fill="#004A4E"/>
</g>
</svg>
