<svg width="89" height="26" viewBox="0 0 89 26" fill="none" xmlns="http://www.w3.org/2000/svg">
<g id="Group">
<path id="Vector" d="M11.3602 9.62889C11.2159 9.02506 10.7944 7.66779 10.6796 6.66571C10.4262 4.44629 11.3102 2.98461 12.1221 2.64987C13.0332 2.3162 13.3891 2.9168 13.7418 4.31282C14.1978 6.4386 14.2486 9.22419 14.0952 13.212C13.896 18.6594 11.8195 25.238 6.65786 25.1013C2.20232 24.9733 0.230827 21.1856 0.025805 15.4067C-0.0709654 12.6825 0.0774706 9.95932 0.936923 6.10816C1.39289 4.04589 1.79966 3.31182 3.21431 2.9168C4.32635 2.64987 4.2263 4.17613 3.97453 5.97578C3.42015 9.95933 3.16264 11.8828 3.36766 16.4023C3.56613 21.1856 5.23993 23.0466 7.06216 23.0466C9.79552 23.1155 11.0092 20.1265 11.5177 15.8039C11.9187 12.351 11.6161 10.6902 11.3602 9.62889ZM69.639 14.3465C70.7035 14.3465 71.0086 15.9987 70.7543 16.9997C70.5001 17.9942 69.5906 19.1287 68.1743 19.4591C67.8693 18.4603 67.7167 14.3465 69.639 14.3465ZM49.8536 16.5982C49.8536 15.4734 49.3951 14.5424 48.8432 14.5424C48.3823 14.5424 47.3236 15.2044 47.3236 17.3312C47.3236 18.9974 47.7746 19.7874 47.9813 20.1265C49.4452 19.5259 49.8536 17.9275 49.8536 16.5982ZM34.1095 3.0492C34.0382 1.98361 33.4018 1.25816 32.5407 1.25816C31.5803 1.25816 30.6758 2.58099 30.7717 4.24286C30.8332 5.33858 31.3253 6.23948 32.2922 6.23948C33.4018 6.24055 34.2112 4.57976 34.1095 3.0492ZM42.3407 6.95094C42.253 5.09317 41.9102 4.2547 41.15 4.32359C40.1421 4.40323 39.6763 8.56546 39.8821 12.9408C40.0133 15.7953 40.3372 16.2355 40.639 16.2075C41.1967 16.1634 42.5343 11.0637 42.3407 6.95094ZM75.916 13.944C75.2886 17.3592 73.3868 22.3836 70.5493 22.3836C69.8924 22.3836 68.7279 22.0488 68.7279 21.1856C68.7279 20.2546 73.1851 20.1265 73.1851 15.6726C73.1851 14.0139 72.0214 11.6858 70.2992 11.6858C68.0218 11.6858 65.8002 14.9439 65.8002 19.4602C65.8002 23.5094 67.7167 24.8387 69.6398 24.8387C72.9817 24.8387 75.0065 21.2491 76.0685 18.2622C76.577 20.2556 76.8755 24.8387 78.1458 24.8387C78.6501 24.8387 79.0069 24.5061 79.6146 22.7151C81.1293 18.2612 82.5989 13.1464 84.6245 13.1464C85.3814 13.1464 84.9279 14.9439 86.7493 14.9439C87.608 14.9439 88.2132 14.0139 88.2132 12.9462C88.2132 11.4167 87.152 10.2252 85.534 10.2252C80.775 10.2252 79.7663 19.5926 79.0061 19.5926C77.7398 19.5926 78.145 12.0851 77.2322 12.0851C76.422 12.084 76.0242 13.3509 75.916 13.944ZM35.4266 21.9143C36.1851 21.9143 37.4899 21.5914 38.5167 19.4333C37.9295 17.7219 37.5104 14.2636 37.4522 13.0043C37.1504 6.56454 39.0407 0.506864 41.1098 0.338954C42.6269 0.218404 43.8407 2.10309 43.9801 5.15668C44.3532 13.1808 42.3169 16.5304 41.2976 19.4204C41.4698 20.5409 42.9181 22.4481 44.2843 22.4481C44.7887 22.4481 45.3988 22.1156 45.5522 21.8465C45.4505 21.3847 45.3472 20.7873 45.3472 19.9209C45.3472 15.2711 47.6254 11.35 49.6002 11.35C51.169 11.35 52.0801 14.0731 52.0801 15.8706C52.0801 17.9932 50.7122 19.7239 48.689 21.3847C49.0449 21.8465 49.6994 22.1823 50.2587 22.1823C53.1462 22.1823 54.6568 17.5971 55.7754 13.4101C55.9772 12.6114 56.3339 11.4845 57.0408 11.4845C58.2554 11.4845 58.7638 21.981 60.7829 21.981C61.6464 21.981 62.3533 19.654 62.3533 17.8651C62.3533 16.5347 61.9991 16.4012 61.9991 14.4746C61.9991 12.351 62.8602 10.5588 64.0271 10.5588C64.7349 10.5588 64.9907 11.4845 64.9907 12.6114C64.9907 16.8641 62.6592 24.7709 59.2222 24.7709C56.6365 24.7709 56.8382 18.9242 55.9279 18.9242C54.911 18.9242 53.4939 24.8366 48.4881 24.8366C47.6746 24.8366 46.8159 24.3059 46.109 23.2403C44.8961 24.3059 43.8809 24.7709 42.7163 24.7709C40.8457 24.7709 40.0338 22.2458 39.2769 22.2458C38.3641 22.2458 37.3546 24.8366 34.3145 24.8366C31.8854 24.8366 31.4803 20.5893 30.6217 20.5893C29.8606 20.5893 28.6969 24.8366 27.4323 24.8366C25.3034 24.8366 24.8523 17.4647 22.976 17.4647C21.5088 17.4647 16.8712 24.9517 15.6124 24.7806C15.1064 24.7117 14.8932 24.2155 14.9465 23.5503C15.0178 22.6311 15.6206 20.1706 15.865 19.0071C16.2742 16.9868 16.6498 14.7727 16.8598 14.0667C17.0681 13.3541 17.6298 12.8461 18.0809 12.901C18.308 12.929 18.3761 13.4854 18.4466 13.945C18.7025 15.5875 19.0592 17.2623 19.4619 17.2623C20.1729 17.2623 22.5208 11.3489 23.8871 11.3489C25.5601 11.3489 25.7602 20.6517 28.0367 20.6517C28.7978 20.6517 29.3563 19.4581 29.8606 17.9921C29.9123 15.5305 30.4183 12.0173 31.9363 12.0173C32.9999 12.0173 33.5067 15.1365 32.7449 17.864C32.7432 21.1167 34.3613 21.9143 35.4266 21.9143Z" fill="#004A4E"/>
</g>
</svg>
